<?xml version="1.0" standalone="no"?>
<!DOCTYPE svg PUBLIC "-//W3C//DTD SVG 1.1//EN" "http://www.w3.org/Graphics/SVG/1.1/DTD/svg11.dtd" >
<svg xmlns="http://www.w3.org/2000/svg" xmlns:xlink="http://www.w3.org/1999/xlink" version="1.1">
<metadata>
Created by FontForge 20201107 at Thu Oct 21 13:48:22 1999
 By 
A fair dinkum free font by WEB DOG 1999 http://www.webdog.com.au
</metadata>
<defs>
<font id="ANVIL" horiz-adv-x="598" >
  <font-face 
    font-family="ANVIL"
    font-weight="400"
    font-stretch="normal"
    units-per-em="1000"
    panose-1="0 0 4 0 0 0 0 0 0 0"
    ascent="800"
    descent="-200"
    x-height="800"
    cap-height="800"
    bbox="-1 -2.06452 848 802.207"
    underline-thickness="20"
    underline-position="-143"
    unicode-range="U+0020-007A"
  />
<missing-glyph horiz-adv-x="500" 
d="M63 0v800h375v-800h-375zM125 63h250v675h-250v-675z" />
    <glyph glyph-name=".notdef" horiz-adv-x="500" 
d="M63 0v800h375v-800h-375zM125 63h250v675h-250v-675z" />
    <glyph glyph-name="glyph1" horiz-adv-x="0" 
 />
    <glyph glyph-name="glyph2" horiz-adv-x="500" 
 />
    <glyph glyph-name="space" unicode=" " horiz-adv-x="500" 
 />
    <glyph glyph-name="ampersand" unicode="&#x26;" horiz-adv-x="662" 
d="M631 15q-45 -23 -93 -15l-92 92l-61 -61l-77 -31h-154l-15 5l-31 10q-66 33 -108 108v339l15 -47l31 -30h31l46 30l-46 16l-31 46v31l-15 30q22 93 15 170l31 15h15l-15 -15v-31l31 -15h61q35 9 62 46l-31 61l-46 31h-16q86 -8 154 -46q59 -33 123 -108l31 -77l16 16
v-200l-62 -47h-15l-16 -15l16 -31l30 -15q29 15 61 47t47 61v-216q58 -59 66 -69q33 -41 42 -85zM338 692l-30 31h-46v-15l-31 -46l-46 -31v15l-16 -15v15l-15 -15v15l-16 -15v15l-15 -15v15l-15 -15v15l-16 -15l-15 31v-154l15 15v-31h31q32 -30 46 -46h31l-15 16v15
l-16 -15v30h-15l-16 62l16 77l15 -16v0h16v16h15v15l15 -15l16 31l15 -16v62l16 -16v31l15 -15v15l15 -15v0h16l15 -16v16zM292 492v62q-12 18 -46 31h-31l-30 -16v-31q15 -30 30 -61l31 -15h31zM492 262v46l-15 -46v30l-15 -15v-31h-16l16 16v-31l-16 -16v47l-15 -16v-31
h-16l16 16v-31h-16v15h-15v-30h15q23 6 47 30t30 47zM615 31l-15 31l-31 15v-15q-11 33 -31 46v-16l-15 16v30h-15v-15l-16 15l-15 -15v0l15 15l31 -30l15 -31q10 -13 77 -46zM431 492v0q-18 45 -18 97q0 14 2 26v-123l-15 31q6 -32 -15 -77v108q-17 15 -47 46q-6 17 -30 46
h-46l-16 -31h46q38 -43 46 -92q-24 -44 -15 -108v47l-15 -16v-15l-16 -16l-15 31l-15 -31v16h-16v-16l-15 -15v15h-16v-15h-15v15h-15v-15l-16 -15l-15 15l-16 -31v31l-15 -15v-31l-15 -16v31h-16q8 -47 -15 -92v92h-15v-200l46 -61l61 -16h154q17 30 31 77l-16 -15v-16
l-15 -30v61l-15 -15v-16l-16 -15v46l-15 -15v-16l-15 -15v46h-16v-31l-15 -15v46h-16v-15l-30 -16q-13 20 -47 31l-15 16l-15 77l46 61v-15l15 -16v16h-15v30h15l16 -15v0l-16 15l16 16h15l15 -16v0l-15 16q59 41 138 46q31 31 93 92zM400 246l-62 62h-15l-31 -16v16l16 -16
v0l15 16l31 -46l-16 -16v0l16 16h15l16 -16h15zM446 123v46h-15v-46h15zM431 108v46h-16v-46h16zM415 92v46h-15v-46h15zM385 185l-16 -31v-31zM338 200l-92 77l-46 -15l-15 -31l61 -31h92zM400 77v46h-15v-46h15zM354 46v31h-16v-31h16zM338 46v31h-15v-31h15zM200 154v31
h-15v-16zM369 446h-15v77h15v-77zM154 508h-16v107h16v-107zM138 508h-15v107h15v-107zM108 554h-16v61h16v-61zM123 523h-15v92h15v-92zM92 569h-15v46h15v-46zM369 46h-15v46h15v-46z" />
    <glyph glyph-name="A" unicode="A" horiz-adv-x="775" 
d="M738 160l-12 -12h-184v147l-37 13q-25 -13 -50 -25l-24 -25l-25 -86q-13 -27 -49.5 -72t-61.5 -63l-73 -37h-62q40 7 74 37v49l-37 25l-49 12h-86l-37 -25v-24v0h-13l-12 12v99l25 49q81 48 135 111l62 24h12q-76 -38 -99 -111l13 -61l49 -25l49 13l25 24l24 49l-2 74
q-2 45 2 74l9 66q0 10 4 33l41 82l20 41q17 16 33 33l66 65l-13 37l-37 25h-61l-37 -50l12 25l37 37h86q23 -7 62 -25q58 -35 111 -98q2 -2 20 -40q10 -23 41 -34v-406l25 -25q15 11 24 37v-49zM455 652v25h-12v-25h12zM443 628v37h-12v-37h12zM431 628v24h-13v-24h13z
M615 345v209h-12v-209h12zM418 615v25h-12v-25h12zM677 172v333h-12v-333h12zM406 591v24h-12v-24h12zM529 394v148l-12 12q-50 -36 -70 -119l-4 -17v-49q49 12 86 25zM382 542v49h-13v-49h13zM369 505v61h-12v-61h12zM357 492v50h-12v-50h12zM345 480v37h-13v-37h13z
M591 185v135h-13v-135h13zM652 172v37q-18 185 -12 382h-25v-13q-15 56 -73 99h-13q-36 -12 -90 -88q-35 -55 -70 -109v-86q0 -16 6.5 -49.5t6.5 -49.5q0 -52 -13 -86l-61 -61l-13 12l13 25v12l-13 -25v-24l-12 12v0l-12 -12v-25l-13 37l-12 -37l-12 12v13h-37l74 -37
q86 57 123 135l12 62l-12 61l12 62v-62q-7 50 12 86v-135h37q45 25 62 25h37l12 -13l12 13v24h-12v-24l-12 12v12h-12v-12l-13 12h-12v-24l-12 12v12l-13 -12v-12l-12 12l-12 -12h-25v-25l-25 25v73l13 62l74 98h49l24 -24l13 12v-394h24v0h13v13l12 12v-25h12zM357 234v221
h-12v-221h12zM418 246v49h-12v-49h12zM345 209v246h-13v-246h13zM332 185v49h-12v-49h12zM382 148v24h-13v-24h13zM271 62v12h-13v-12h13zM148 172l-13 13l13 -13h-25v13l-12 24v-24l-13 24v-37l-12 25v12l-12 13v-50l-12 13v0v0l-13 -13l-12 13v-13l-12 -24l61 24h62z
M25 123v25h-13v-25h13z" />
    <glyph glyph-name="B" unicode="B" 
d="M570 303l-12 -85q-32 -43 -85 -60h-206q-62 -25 -134 -97q-12 -14 -36 -37l-49 -24h-48q30 9 63.5 38.5t45.5 58.5l12 48v473q24 12 49 24v25q8 34 72 78q47 33 97 55h73l-48 -12l-37 -36v-25q15 -19 73 -48h73q16 5 36 12l24 24l-12 12h-24q37 6 73 -12v-109l-25 -36
q-52 -20 -72 -49l60 -48q37 -99 37 -170zM545 642v25h-12v-25h12zM533 630v37h-12v-37h12zM521 618v49h-12v-49h12zM509 606v49h-12v-49h12zM497 606v49h-12v-49h12zM485 594v61h-12v-61h12zM473 594v61h-12v-61h12zM436 630v25h-12v-25h12zM315 703v36h-12v-36h12zM303 715
v24h-12v-24h12zM327 691v24h-12v-24h12zM412 558v24q-14 14 -27 28q-17 14 -33 20q-12 -4 -30.5 -18t-30.5 -18l-12 -24v-25zM218 667v24h-12v-24h12zM206 630v37h-12v-37h12zM545 606v12l-24 -24l-36 -12l-37 12v0q-17 35 -12 61v-49l-36 36q-59 33 -133 37l-37 -49
l-12 -72l-12 24v-24l-12 12v-170l12 -182h279l36 37l12 60q-18 60 -12 121v-133l-12 -12v-12l-12 -12v12h-12v-12v0v-12l-12 -25v37h-12v-12l-13 -25v37h-12v-12l-12 -25v37h-12v-12l-12 -25v37h-12v-12l-12 -25v37h-12v-12l-12 -25v37h-13v-12l-12 -25v37h-12v-12l-12 -25
l-12 12l12 13l-12 12v-25h-12l12 37l-24 12q5 -25 -12 -61l-25 109q8 50 16 101q10 62 10 102q0 15 -1 28q29 33 48 97q60 -29 109 -37l24 -36v-49l-36 -60l85 73q4 5 12 12l26 16t22 20zM194 594v61h-12v-61h12zM388 497h-109v-49h24q3 0 34 11q36 13 39 14zM497 376
q-16 54 -73 97l-24 -37q-78 -30 -121 -24v-60l36 -25l49 -12h97l24 24zM182 582v24h-12v-24h12zM194 388v182h-12v-182h12zM182 170v388h-12v-388h12z" />
    <glyph glyph-name="C" unicode="C" horiz-adv-x="536" 
d="M510 331q-19 -82 -13 -165l-28 -56q-68 -21 -166 -13l-193 -97q-81 151 -96 207q0 1 -7 55t-7 55v111q0 54 14 124q9 28 27 82q18 26 56 69q40 36 151 97h83l-55 -14l-42 -41l-13 -55q84 -13 112 -19q64 -14 108 -37q14 29 14 69v14h-41q57 8 96 -14v-151l-82 -42
q-17 -12 -48 -47q-35 -37 -49 -49l-28 -14q-14 -9 -41 -28h-41v28h27q28 7 59 45q28 34 38 65q-20 62 -69 97h-42l-27 -14q-10 -30 -41 -55v-166l13 -69l42 -55l55 -14h55q19 0 51 14t46 28l-14 55l-42 41h111zM483 621v27h-14v-27h14zM469 607v41h-14v-41h14zM455 593v55
h-14v-55h14zM441 579v55h-13v-55h13zM428 579v55h-14v-55h14zM414 566v68h-14v-68h14zM400 566v68h-14v-68h14zM221 690v41h-14v-41h14zM207 703v28h-14v-28h14zM234 676v27h-13v-27h13zM110 648v28h-13v-28h13zM97 607v41h-14v-41h14zM483 345h-14v14l-14 -166v28l-14 -14
v-28l-13 -13v41h-14v-14v0v-27l-14 -14v41h-14v-27l-14 -28v55h-13v-27l-14 -28v55h-14v-27l-14 -28v55h-14v-27l-13 -28v55h-14v-27l-14 -28v55h-14v-27l-14 -28v55h-13v-27l-14 -28v55h-14v-27l-14 -28v69l-13 14v-28l-14 -14v55l-14 14v-27l-14 -28v345q21 -124 14 -248
v262q21 -138 14 -290v110q-1 15 -8 56q-6 35 -6 55v55q25 43 55 69l69 14l55 -14l42 -41v-83l-14 -28l69 69q16 16 69 42v27l-28 -27l-41 -14h-42v14l-13 27v-14l-42 42q-70 8 -151 41l-42 -55l-14 -69l-13 28v-276q0 -15 8 -55q7 -35 5 -56q9 -8 42 -41l82 -14h138
q7 0 33.5 11t35.5 17l28 41l14 -14v166zM83 579v55h-14v-55h14zM69 566v41h-14v-41h14zM97 510v42h-14v-42h14zM55 552v27h-14v-27h14zM83 262v290h-14v-290h14zM69 221v317h-14v-317h14zM359 607h-14v27h14v-27z" />
    <glyph glyph-name="D" unicode="D" horiz-adv-x="624" 
d="M594 315l-12 -60q-34 -52 -85 -97h-255q-54 -88 -169 -146l-73 -12l61 24l48 49l36 121v436q0 21 -18 68q-16 41 -30 66q-47 29 -97 36h61l60 -24q34 -40 85 -73q71 52 158 97h60l-36 -12l-36 -36l12 -37l48 -36h36l25 12v36q-25 11 -49 25h49q10 0 37 -15q24 -13 35 -22
q28 -34 49 -85v-315zM545 655v36h-12v-36h12zM558 630v49h-13v-49h13zM315 727v25h-12v-25h12zM582 303v327h-12v-327h12zM327 691v48h-12v-48h12zM206 655v24h-12v-24h12zM570 267v400h-12v-134l-13 12q3 15 -6 42.5t-6 42.5q-24 25 -48 49l-24 -24h-134l-12 36h-36
q-14 -10 -37 -49l-48 -24v-182l12 182v-145q-6 37 12 72v-303l24 -36h231l60 24v61l12 12h13q-16 -36 -13 -48v24l13 24v-36h12zM545 218v37h-12v-37h12zM521 194v24h-12v-24h12zM206 158v48h-12v-48h12zM182 121v73h-12v-73h12zM521 291l-12 12l-12 -24v-12l-12 12l-12 -24
v-13l-12 25h-13v-25l-12 25h-12v-25l-12 25h-12v-25l-12 25h-12v-25l-12 25h-12v-25l-13 25h-12v-25l-12 25h-12v-12l-24 36v-73h-12v388h12v-36l12 12v24l12 -12v12l12 12v12h24v12h122v-12l12 -12l12 37q-6 -170 12 -328v315q-6 -169 12 -327v315q-6 -157 12 -315h-12
l12 291v-315zM194 145h-12v473h12v-473zM436 315v158l-24 -37l-48 -12l-37 12l25 12h12q38 22 60 49l12 48v37l-36 36h-48l-37 -24q-24 -71 -24 -73v-36q0 -14 6 -42.5t6 -42.5l-12 -73l73 -12h72z" />
    <glyph glyph-name="E" unicode="E" horiz-adv-x="507" 
d="M483 495q-36 -13 -80 -45q-36 -28 -73 -56l-25 -64q7 65 -13 114h-51l-38 -12q-28 -24 -51 -64v-101l13 -51l38 -38h64l38 38v13l-13 12h-13v13h102l38 -25h51v-166q-37 -18 -76 -12h12l13 25v51h-102l-88 -13l-26 -51l13 -38l38 -25h-51q-19 8 -51 25q-16 18 -50 51
l-51 38l-13 26v25q-11 16 -38 25v420l25 12q8 19 26 51l25 25q77 79 140 102h63l-38 -13l-38 -38q13 -25 26 -51q8 -4 33 -14.5t30 -10.5h114l26 38l-26 13h-12q39 7 76 -13q-10 -25 -13 -76t-13 -76l-50 -26h-115l13 26v25l-51 38l-51 -12l-38 -64v-76l77 25h254zM356 444
h-13v39h-13v-26l-13 -13v39h-12l-13 -13v13h-13l-12 -13v13h-13l-13 -13h-25v-13l-13 13v-13l-13 -13v13h-12v-13l-13 -12v12h-13v-25l-12 -13v26h-13v-51h13v13l63 50l89 26v-26h25l13 -12h13l13 25v-13zM444 597v13l-12 -13l-26 -13l-12 -13h-51l-13 26l13 25v-12l-13 -26
v38l-13 -25l-25 38l-25 13h-64l-13 25h-38l-25 -13q-27 -37 -38 -63v-368l13 -51l50 -51q53 8 102 38h89q18 0 89 -25v25l-64 25q-21 -3 -63 -12l-27 -9q-15 -5 -26 -5q-6 0 -11 1l-12 -13v13l-13 -13h-13l13 13h-13v0h-13v-13h26l-13 -12l-38 -13l-38 38l13 25v0l-13 -25
l-13 13l13 343q5 22 13 63l50 51h39l50 -13q29 -22 51 -63h64q10 15 38 25zM127 190h-13v343h13v-343z" />
    <glyph glyph-name="F" unicode="F" horiz-adv-x="636" 
d="M606 509q-34 -13 -75 -43l-70 -54l-25 -60q7 61 -12 109h-48q-25 -12 -61 -37l-24 -36v-206l24 -24h-48l-73 -49q-13 -25 -43 -56t-54 -41q-44 -19 -97 -12q47 27 85 36q41 45 73 219l-25 181q0 10 5.5 31.5t6.5 29.5q-1 16 0 48q3 19 22 58q16 35 16 60q0 8 -1 16
q57 36 85 60l29 29q10 10 40 24l16 8h60l-36 -12l-37 -36q13 -25 25 -49q37 -10 60 -24h73q16 5 36 12l25 24l-13 12h-24q38 6 73 -12v-97l-24 -48l-49 -25h-109l24 25q-7 27 -48 60l-61 -12l-36 -60v-73q30 13 77 24q51 12 80 12q15 0 42 -5q31 -6 43 -7h73zM485 461v12
l-12 -12v36h-12v-12l-13 -24v36h-12v-12h-12v12h-12v-12h-12v12h-12l-12 -12h-12l-12 -12v12h-13v-12l-12 -12v12h-12v-12l-12 -13v13h-12l-12 -13v-36l60 61l85 12l24 -24h13v-25zM570 606v12q-5 -7 -61 -36h-24l-37 48q-109 19 -157 49q-41 -33 -73 -97v24l-12 -12v12h-12
v-12l-12 -339h12v0l12 339q18 -194 12 -400h12q5 36 12 109q1 19 1 152q0 92 12 151v-412q-6 218 12 424v-424q-6 230 12 448v-24l12 24v-12l12 12v0h97l48 -24l13 -48h36q24 12 73 36z" />
    <glyph glyph-name="G" unicode="G" 
d="M570 218q-21 -28 -69 -52q-43 -22 -110 -22q-14 0 -42 1.5t-42 1.5q-54 0 -89 -14q-48 -50 -109 -109l-48 -24h-61q49 22 85 48l36 49l12 48v461l25 12q12 24 36 73q35 29 97 73q52 29 121 36l-36 -12l-37 -36v-37q15 -4 36.5 -24t36.5 -24h73q16 5 36 12l24 24l-24 24
h24l25 -12v-109l-12 -48q-52 -6 -85 -37l72 -60l25 -73v-170zM412 545v37q-17 17 -22 21q-12 10 -26 15h-25q-17 -17 -34 -33q-20 -21 -26 -40h133zM558 303l-13 73v-146zM558 594v24l-25 -24l-48 -12h-24v73q7 -38 -13 -73v48l-12 -24l-24 24q-74 23 -133 49
q-47 -43 -61 -121v12l-12 -25v-327l279 -12l48 36l12 61q-17 73 -12 133v-133l-12 -24v12l-12 -12v-12h-12l-12 -12v-25l-12 12v13h-12v-25l-13 12v13h-12v-25l-12 12v13h-12v-25l-12 12v13h-12v-25l-12 12v13h-12v-25l-12 12v13h-13v-25l-12 12v13h-12v-25l-12 12v13h-12
l12 -13h-12v37h-24v-49l-25 109q5 29 13 85q-1 25 0 73q5 54 48 158q73 -11 121 -25q15 -35 24 -97l-36 -48q43 49 69 68q20 14 77 41zM400 497h-121v-61q35 18 73 12q24 25 48 49zM497 327v37l-12 60l-49 37q-36 -25 -72 -49q-38 5 -85 -12v-48l36 -37l49 -12h109zM255 230
h-13v315h13v-315zM242 255h-12v266h12v-266z" />
    <glyph glyph-name="H" unicode="H" horiz-adv-x="827" 
d="M788 800l-61 -24l-36 -49l-12 -582h-170l24 25v206h-36l-73 -49q-37 -38 -37 -117q0 -15 1 -28l24 -37h-12q-79 -93 -206 -145q-98 8 -146 24q-49 52 -49 98q0 6 1 11l24 25l-12 -97q32 -13 97 -13q18 0 85 25l36 48l12 231v242l-12 12q-17 -17 -21 -22q-10 -12 -15 -26
l12 -13h-109q-35 27 -61 37v73l12 72h73l-48 -24l24 -24l36 -12q40 20 73 60l-12 49q-36 12 -73 24q83 -5 134 -36q43 -26 109 -97l24 -61v-218q71 63 145 109v230q61 24 182 73h73zM642 667l-12 24l-24 -12v-449h24zM327 655v24h-12v-24h12zM339 642v25h-12v-25h12z
M242 703v36h-12v-36h12zM230 691v48h-12v-48h12zM218 655v60h-12v-60h12zM206 630v61h-12v-61h12zM194 618v61h-12v-61h12zM182 606v61h-12v-61h12zM170 606v49h-12v-49h12zM158 594v61h-13v-61h13zM145 594v61h-12v-61h12zM133 606v49h-12v-49h12zM121 606v49h-12v-49h12z
M109 618v37h-12v-37h12zM545 400v12q-37 6 -72 -12q-26 -22 -61 -63q-41 -47 -48 -70l-37 -12v327q-3 4 -27 45q-17 27 -33 40l-37 12v-37l-24 -12q-8 -27 -36 -48h-49l-12 12h-12l-24 24h-12v-24q45 -33 121 -36v36l24 24l36 12l25 -12l12 -24l24 -12l12 -376l12 -24v12
q18 -35 12 -73v97q19 -47 13 -85v97q19 -35 12 -85v85q22 62 48 109q62 51 133 61z" />
    <glyph glyph-name="I" unicode="I" horiz-adv-x="433" 
d="M413 138q-15 -11 -46.5 -27t-41.5 -23q-28 -29 -75 -76v38q0 14 8.5 45.5t16.5 41.5q-14 11 -25 38l-37 13l-38 -13l-25 -37v-38q14 -24 25 -62l-12 -38q-24 38 -63 87l-100 50v75l12 76h51l-26 -13l13 -25l25 -13h50l13 325l-13 25q7 39 -25 88q-25 12 -50 25h-25v25
q66 -17 112 -63l13 13l-13 25l13 62l37 38l63 -12l38 -38v-50q-6 -17 -13 -38q39 22 62 50q37 18 63 13l-25 -25l-37 -12q-25 -50 -51 -100v-351h75l13 13v25l-12 13h-26q39 7 76 -13v-137zM250 662v26q-12 4 -31.5 18.5t-31.5 18.5l-25 -25l13 -38l38 -37zM275 663l-63 -63
l-62 63l-13 -13l63 -63q7 6 75 76zM263 587l-51 -25l-50 26v-13l38 -38v-325h25v313q26 37 38 62zM400 188v25l-13 -26v0l-12 -12v12h-13v-12h-12v0h-13v-13h-12v13l-13 -13v-12l-12 -25v37h-13v-50q61 54 88 63h13zM163 188h-26l1 -26zM125 112v50l-13 -12v12l-12 -25v38
l-13 -13v0h-12v13h-13v0l-12 -12l-25 37q9 -28 38 -50l37 -13z" />
    <glyph glyph-name="J" unicode="J" horiz-adv-x="547" 
d="M521 618l-12 -73h-48l24 25l-24 24h-25l-12 12h-24l-12 -218v-206l36 -37h-12q-73 -85 -145 -121l-73 -24q-85 10 -146 24q-21 51 -48 85v24l24 25v-97l49 -13h85q39 21 84 73v473l-24 12q-37 -10 -60 -24v-24h24l12 -13h-36q-17 6 -37 13v145l49 12q36 37 72 73l49 12
q-9 -31 -36 -85l12 -36q12 -12 36 -37h24l25 13l24 48v24q-11 25 -37 73l49 -12q17 -12 48 -36q12 -14 37 -37l48 -24v-73zM497 582v97l-12 -61l-49 49q-38 -22 -60 -49h72zM339 109v521h-109l-24 37l-36 -12l-25 -25v49h-12v-85h12l25 24h60l61 -12v-545l12 557h-12l12 -12
v-521zM230 24v24l-12 -12v-12h12zM182 24v12h-12v-12h12z" />
    <glyph glyph-name="K" unicode="K" horiz-adv-x="729" 
d="M694 0h-47q-19 25 -59 71l-88 76q-48 46 -53 100l12 47q-28 65 -83 106h-94v-200l24 -24h-212l-70 -23v-12l11 -12l24 -11l-12 -12h-23l-24 35l12 35l59 48l70 11l-12 459q-27 79 -129 106h47q10 0 37 -14q24 -13 34 -21q11 -13 35 -36q12 -7 35 -23q24 -21 48 -43
q28 -22 58 -28v-11l-12 -12v-130h36q7 0 44 16q42 18 50 20q28 45 35 94l-23 23h-24l-12 -11v-12l-12 -12l24 -24v-11h-24q-28 33 -35 70l12 47l35 36l59 11h200l-59 -23l-35 -47v-35l23 -36h36q-25 -37 -71 -94q-14 -14 -58 -39t-48 -31q89 -20 130 -59l23 -36l36 -247
l47 -70h11zM494 647l-35 24h-35q-26 -9 -36 -24v0l24 12q20 -7 59 -47q8 25 23 35zM376 588q-17 35 -11 83q-6 -48 11 -83zM576 329q6 -36 -11 -70v82l-12 -106v106l-12 -23v47q5 -37 -12 -83v83l-11 -12v0l-12 -24v47h-12v0l-12 -11v23h-11v12l-12 -12v12l-12 -12v12h-12
v12l-11 -12v12h-12l-24 12v11l12 12q16 -4 141 47l12 59l-24 12h-23l-12 11l12 12v-23h-12v35q5 -25 -12 -59l-11 12l11 23q-3 -11 12 -47q-14 -19 -49 -45.5t-57 -36.5q-29 -8 -82 -23l-47 11v200v0v-211h106l11 -12h24l12 -12v12l35 -12q10 -17 35.5 -47t35.5 -47v-24
q4 -15 23.5 -35.5t23.5 -34.5v12q15 65 11 105zM576 153l-11 -12v12l11 -24v24zM235 424v94l-11 94h-24l-24 -12v-12q18 -188 12 -388v400l12 -24v24q12 -62 12 -188t12 -188v105q1 14 6 48q5 30 5 47z" />
    <glyph glyph-name="L" unicode="L" horiz-adv-x="709" 
d="M675 538l-62 -25l-38 -63q-12 -62 -25 -125q17 -66 63 -112v-25l-150 -150q-13 -10 -47 -23t-53 -15h-50l-17 4l-33 8l-25 17q-18 10 -50 33l-76 76h50q30 -36 38 -75q22 -13 87 -13l50 12q21 41 63 75v13l-350 12l-50 51q25 -13 50 -25l25 -26l25 13q-40 22 -75 62
l12 38l38 38h13q-29 -22 -38 -50l37 -38h50l13 250l-12 237q-21 41 -63 75h-38l25 13h38l78 -78q46 -44 84 -72l63 -12q-11 -14 -25 -25v-313l37 13l38 -13l38 12v38q-37 19 -88 12v138q22 -51 50 -88h50l25 9q30 10 60 40q50 49 52 51q34 27 95 27q10 0 18 -1zM538 437v26
h-13v-26h13zM513 412v26h-13v-26h13zM488 400v25h-13v-25h13zM563 450v12l-13 13v-13l13 -12l-13 -13l-13 13v0l13 -13l-50 -50h-125v13l-13 -13l-25 13v-25h151q23 28 62 50zM250 625v13l-25 12l13 -25h12zM225 637v26l-12 -1v-25h12zM175 675v25h-13v-25h13zM538 262v26
l-13 -1v-25h13zM550 250v25h-12v-25h12zM463 312v51l-13 -1v-50h13zM588 175v50h-13v-50h13zM450 300v25h-13v-25h13zM538 200v25l-26 13l13 -26l-13 -12q-19 74 -12 163h-13v-201q-18 101 -12 201v-63h-13q-3 -15 5 -34q8 -22 8 -29q0 -67 -13 -100q-18 76 -12 151v-13h-13
l13 -25l-13 -25l-12 13v24h-13l13 -25l-13 -25l-12 26v25h-13l13 -26l-13 -25l-12 26v25h-13l13 -26l-13 -25l-12 26v25h-13l13 -26l-13 -25l-12 13v0l-13 -13l-12 13v13h-13l13 -13l-13 -13l-12 13v13h-13v362q6 -188 -12 -363q6 188 -12 375h-26l-25 26v-25l13 12l13 -25
v0v13l12 -201l-13 -187l13 -13q113 6 213 -12l12 -50l-13 -38l-12 13v-25l-13 -13l-12 13v-13l-13 -12h-12v-13h-25l63 13q75 50 125 125zM550 137v26l-13 -1v-25h13zM525 112v26l-13 -1v-25h13zM513 100v25h-13v-25h13zM475 75v25h-13v-25h13zM250 225h-13v212l13 1v-213z
" />
    <glyph glyph-name="M" unicode="M" horiz-adv-x="890" 
d="M848 0h-48l-72 24q-43 44 -86 87q-60 63 -69 92v24l-36 -36q-25 -14 -73 -14q-15 0 -45.5 2t-45.5 2q-49 0 -74 -14l-24 -36q10 -15 35 -24l-35 12l-24 36v24h-191l-36 -36l36 -36q-38 21 -60 48l12 48q21 18 107 48v107q1 17 7 60q5 38 5 60l-24 238l-35 36l-48 12v24
q30 -11 83 -36l72 -59q40 71 131 107h72q-37 -10 -60 -24l12 -48l36 -24q57 66 131 96h72l-48 -12q-10 -18 -35 -48l11 -24l12 -12h60l24 24l-12 24l-24 12h36q11 0 36 -13.5t36 -22.5q27 -33 47 -83v-144q0 -24 -6 -71.5t-6 -71.5q0 -121 36 -274l48 -60zM561 681v0v0z
M704 143v502h-11v-502h11zM621 645l-12 24l-12 -12l12 -12l12 12v-12zM681 167q-5 40 -12 120v290v80l-12 47l-24 -11l-12 -12l24 -24v-406l-24 -48v0l12 12v-48l12 24v-24l12 12v-24h12v-12zM693 275v191h-12v-191h12zM561 454v203q-38 -21 -60 -48v-382q27 8 48 36z
M334 573v48l-12 36l-35 -36l-12 -60v-48l12 -47l23 12q24 93 24 95zM525 657l-12 12l-12 -12l-11 12l-48 24q-26 -9 -36 -24h-36l-24 12v0v12l-12 -12l-12 12l12 11v0l-12 -11h-12v11h12v24h-12v-24h12l-12 -11h-11q-12 11 -24 23l-48 -23l-24 -48l-12 12v12l-12 -12v12h-12
v-12l-12 12q18 -191 12 -382q-6 179 12 346v-370h12v358h-12l24 24v-394l-12 -12q-64 0 -55 0q-32 -1 -52 -12l-12 -12l12 -12v12h12v12h11v-12l-11 12h11l12 -12v12h12v-12l-12 12h12l12 -12v12h12v-12l-12 12h12l12 -12v12h12v-12l-12 12h12l12 -12v24h12l24 12l12 394
v-358q-6 179 12 346v-334h12v322h-12q33 39 71 60l72 -24v0l24 -12l12 -394l-12 -12q-73 -8 -108 -24h24v12l12 -12v0h12v12h12v0h12v0h12v0h12v12l12 -12v0l24 24v358l12 12v-84q1 -14 6 -41.5t6 -41.5v-167v334q18 -155 12 -311v299zM346 251v227q-34 -29 -71 -36v-108
l12 -107q22 14 59 24zM263 215v48h-12v-48h12zM251 215v36h-12v-36h12zM513 657l-35 -36zM490 657l-24 -24v12l12 12h12zM621 287h-12v346h12v-346zM621 179h-12v24h12v-24z" />
    <glyph glyph-name="N" unicode="N" horiz-adv-x="751" 
d="M715 800q-64 -16 -109 -61l-24 -84v-437l-24 -12l12 -36l36 -12l-48 -13q-49 16 -96 75q-42 52 -62 107l-16 65q-15 62 -32 117l-61 73l-12 -24v-364l24 -24h24v-12q-62 8 -97 -13l-133 -133q-48 -18 -97 -12q67 28 121 97l12 97v327l-48 37h-49v-25l12 -12h-24l-12 49
q13 30 73 121l73 12q42 56 109 85l72 12q-38 -21 -60 -48l12 -37l73 -73q20 -41 60 -121q-5 49 12 109q-6 51 -36 97l61 -24h60q65 72 134 97h60zM509 630v61h-12v-61h12zM582 703v36l-24 -48l-49 -36v-376h-24v-12q15 -10 24 -37h12q12 12 24 25v12l-24 12v376h12l12 12
v-328l13 340v-315l12 327zM497 327v352h-12v-352h12zM485 339v340h-12v-340h12zM570 230v85h-12v-85h12zM376 533l-24 37l12 36v-12l-12 -12q-38 48 -73 97l-37 24q-14 -66 -72 -121l-61 48q-16 -8 -33 -16q-21 -11 -28 -20h-12l12 -24q49 5 110 -12v12h12l-12 -12h12
l-12 12l12 12q18 -158 12 -327v339q-3 -41 3 -92q9 -87 9 -90v-157v339l12 -12h12v-388h12q-6 206 12 412q20 -182 13 -364v376q18 -182 12 -363v363l12 12q22 -27 60 -48q10 -26 37 -49z" />
    <glyph glyph-name="O" unicode="O" horiz-adv-x="501" 
d="M477 206l-38 -12l-39 -78q-55 -36 -90 -77q-64 -30 -116 -39q22 29 64 52v25l-13 26q-28 10 -39 26h-77l-13 -13v-13l52 -38l-39 -13q-92 37 -129 103v464h39q4 13 38 91q36 41 91 77l51 13h52l-39 -13q-11 -27 -38 -64l64 -26q40 7 77 -13l13 26v13l-38 38h38
q11 0 40 -15q26 -13 38 -23q26 -39 51 -78v-439zM426 684v26h-13v-26h13zM439 658v39h-13v-39h13zM387 710v25h-13v-25h13zM452 258v413h-13v-413h13zM465 297v284h-13v-284h13zM452 219h-13l-13 13v413h-13l-26 13v26l-13 -13h-39l-12 -13l-129 26l-65 -13l-39 -52v-425
l13 -13l91 -13q21 -17 55 -38q45 -27 61 -27h25l13 26l26 13l26 52zM400 219l-13 -13q7 220 -13 439v-451q6 219 -13 451v-464q5 26 -13 64v-77q7 39 -13 77v-39l-12 26v-90q6 40 -13 90v-51l-13 25v-38l-13 26v-26l-13 26v-26l-13 13v-13l-13 13v-13l-13 13v-13l-13 13h-38
q-13 13 -26 25v0l-13 13v-25l-26 25v181l13 -181v-13l13 13v375l13 -13l13 13l-13 25v-13h13v26l13 -13h13l-13 26v-13h13v13h12v0h13v0h13v0h13v26l78 -26v0h38l13 13l26 -13v-426zM310 271v310l-39 38h-52l-51 -51v-336l38 -38h52q26 38 52 77z" />
    <glyph glyph-name="P" unicode="P" horiz-adv-x="585" 
d="M558 436h-25l-12 12q-116 -47 -125 -50q-73 -27 -129 -34l-12 -73v-97l48 -24v-25l-48 13q-52 -6 -85 -37q-32 -55 -134 -121h-36v12l12 12h24q15 9 42 62q23 46 31 72v460q17 15 75 91q41 55 91 75l40 16h61l-37 -12l-36 -36v-49q60 -18 121 -12l73 -36q12 25 12 60v12
h-24l36 12l37 -24v-279zM533 461l-24 48h-12q-26 -15 -73 -48q-20 -21 -60 -61v12l-25 -12h-12q87 18 170 61l12 12zM412 582l-48 36h-49l-48 -36l-12 -49q18 -59 12 -121q35 18 72 12q39 58 47 74q14 28 26 84zM352 642q-32 14 -97 37q-27 -25 -35 -34q-21 -22 -26 -39
v-412h12v364q39 33 61 72q35 19 85 12z" />
    <glyph glyph-name="Q" unicode="Q" horiz-adv-x="597" 
d="M568 116q-11 -35 -23 -70q-30 -25 -116 -46q-46 13 -93 23q-34 30 -78 84l-72 90h-47l-35 -23q8 -26 35 -46h-35l-34 11q-39 32 -58 70l-12 208v221l35 11q35 75 59 95q11 10 103 56h46q-26 -8 -46 -35v-23q28 -28 70 -46l34 11l12 12v11l-46 35h46q12 0 37 -13
q22 -12 33 -22q26 -32 46 -81v-382l-35 -24l-23 -34v-23l55 -55q33 -31 61 -50h46l24 35l-12 35q15 -10 23 -35zM394 672v24h-11v-24h11zM383 684v23h-12v-23h12zM348 707v35h-12v-35h12zM417 359v290h-11v-290h11zM162 730v24h-11v-24h11zM406 313v371h-12v-371h12z
M151 730v24h-12v-24h12zM139 730v24h-11v-24h11zM128 719v23h-12v-23h12zM116 707v23h-12v-23h12zM104 696v23h-11v-23h11zM394 267h-11v382h-12q-13 23 -23 47l-35 -24l-46 -11v0h11v-12l12 12v-12l11 12v-12l12 12v-12h12v-324l11 313v-325l12 325h11v-348
q-20 -27 -46 -35l35 -46l46 69v-11zM93 684v23h-12v-23h12zM81 672v24h-11v-24h11zM278 371v232l-35 35h-46l-23 -12l-23 -35v-313l11 -11l12 23h46q16 -5 35 -12v12h12zM487 58l-12 12l-23 -12h-69l-35 23q8 -25 23 -35h93l23 24v-12zM383 93v11l-12 24v-12l-12 23v0
l-11 23v0l-12 12v0l-11 12v-12l-12 23v-11l-12 11v0l-11 23v-23l-12 23v-11l-11 23v0l-12 11v-11l-12 23v-12l-11 12v-12l-12 12v0l-11 12v-12l-12 12v-12h-11v12q25 -28 46 -35q46 -43 69 -104q46 -27 82 -35zM267 162v24h-12v-24h12zM278 139v23h-11v-23h11zM290 116v23
h-12v-23h12zM301 104v24h-11v-24h11zM58 232v23h-12v-23h12zM267 649h-12v23l-12 -11v11l-11 -11v11l-12 -11h-46v11l-12 -11v11l-11 -11v11l-12 -11v0l-11 -12v0l-12 -11v0l-12 -24l-11 -173v-174l23 -24l23 -11l-23 -12l-35 12l-11 23l11 186l-11 197q20 37 58 69h34
q34 -24 58 -35h47v-23z" />
    <glyph glyph-name="R" unicode="R" horiz-adv-x="738" 
d="M703 0q-78 13 -145 73q-43 77 -110 133l-16 88q-12 55 -32 82l-48 48h-61l-12 -121v-121l36 -24l-73 -13q-14 0 -42 6.5t-42 6.5q-24 0 -67 -12t-67 -25l24 -12h13v-24l-37 12l-24 24l12 37q29 37 85 60h36v400l37 12q15 10 24 37v24q78 89 158 109h60l-36 -12l-37 -36
v-49q65 -11 194 -36l12 48l-12 12h25l24 -12v-133l-49 -12q-41 -40 -121 -122q61 -24 121 -48q27 -35 37 -61h12v13v-182q8 -26 24 -73l49 -61l24 -12h24v-24zM558 642v25h-13v-25h13zM545 630v37h-12v-37h12zM533 618v49h-12v-49h12zM521 606v49h-12v-49h12zM509 606v49
h-12v-49h12zM497 594v61h-12v-61h12zM570 594l-12 24l-25 -24l-36 -12h-24l-12 24l12 24l-12 25l12 -49l-12 -36v-37h12q24 25 60 61h37zM448 630v25h-12v-25h12zM327 703v36h-12v-36h12zM315 715v24h-12v-24h12zM339 691v24h-12v-24h12zM230 667v24h-12v-24h12zM424 582
l-12 24l-24 12h-49l-48 -60v-97h73l48 48zM218 630v37h-12v-37h12zM206 618v37h-12v-37h12zM545 218v134l-12 -13v25l-12 -12v24l-12 -12v12h-12v12h-12v12l-12 -12v12h-12v12l-13 -12v12h-12v12h-12v12h-48q26 -9 36 -24v12l73 -48q37 -40 37 -105q0 -9 -1 -16zM352 655
h-13l-24 24h-24l-73 -73v-388h12q18 194 12 388l13 -12v24l12 -12v24l12 -24v36l12 -24v24l12 -12v-12l12 12v12h12zM206 194l-12 -12v12l-12 -12q-24 12 -49 24h-24q-51 -19 -97 -61l49 37l60 12h24l25 -12h12zM485 594h-12v61h12v-61zM461 606h-13v49h13v-49z" />
    <glyph glyph-name="S" unicode="S" horiz-adv-x="586" 
d="M558 136q0 -14 -16.5 -45.5t-28.5 -45.5l-60 -30l-196 -15h-212l-30 45l-15 347q20 -39 60 -105l76 -76q119 -30 121 -30h60l45 15l15 15l-30 46q-40 34 -143 60t-144 60q-30 61 -60 121v76l30 15q9 22 30 60q11 10 31 30q94 94 166 121h75l-45 -15l-30 -60v-31l90 -45
h91l45 15l30 30l-15 31h45l15 -16l-15 -60q19 -75 15 -106l-30 -30h-45q-41 -50 -91 -75q-46 12 -75 30l30 15l15 -15l15 45l-15 45l-60 31l-60 -15l-31 -31v-60q70 -38 136 -60q22 -4 61 -15l75 -46h15l30 15q11 34 30 46h-15v15h15l-15 -106q0 -25 6 -68q8 -52 9 -68v-60z
M543 528l-15 46h-15l-15 -31h-30l-30 -15q-32 12 -46 30l16 31v30l-16 -45q16 -32 16 -91l15 -15l60 60h60zM498 211v136h-15q6 -31 -15 -75v75l-15 15v-15l-15 -30v60h-15v-15l-15 -15v45h-16v-15l-15 -15v30l-15 16v-16l-15 -15v31h-15l-15 -16v16h-15l-15 -16v31h-15
l-15 -15v15l-15 15v-15l-16 -15v45h-15v-15l-15 -15v60h-15v-15v0v-15l-15 -15v45h-15v-15h-15l-15 15v30q49 25 90 76q46 15 91 30h-30q-30 15 -61 30h-30q-50 -41 -75 -91q-1 -9 -1 -18q0 -63 46 -163l121 15q37 -22 75 -60v15h15l15 -15l-15 -15l15 -15l-15 15h30l16 -15
l-16 -15l16 15l15 -15l15 -45v-76q-32 -12 -46 -30h-60l15 15v15h-15v-30l-15 -15v30h-15v-15l-15 -30v45l-15 -15v0l-15 -30v45l-15 -15v0l-16 -30v45l-15 -15v0l-15 -30v45l-15 -15v0l-15 -30v45l-15 -15v0l-15 -30v60l-15 -15v-15l-15 -30v30l-15 30v15l-16 -30v60
l-15 -15v15l-15 -30v76l-15 -76q12 -33 30 -45v-30l31 -15h332l60 45zM377 166v15l-15 -15v-15z" />
    <glyph glyph-name="T" unicode="T" horiz-adv-x="775" 
d="M738 578q-47 -10 -98 -52q-46 -38 -74 -83l-61 -25l-13 13v12h37l25 25q25 78 25 104q0 10 -1 19l-36 37h-37q-28 -9 -50 -37l-12 -25v-381l37 -37h-49q-37 -25 -111 -74l-25 -37q-44 -38 -102 -38q-10 0 -21 1l37 12q39 38 47 49q13 18 27 62l12 37l-12 394l-12 37
l-37 37l-49 -13l-37 -37l12 -73l49 -62h25v-25l-62 25q-28 45 -74 83q-52 42 -98 52v74l12 86h62q-25 -12 -49 -24l49 -37h74l61 12l37 37l-12 49l-37 25h-37q14 1 29 1q89 0 143 -38l37 -49l37 49q58 38 133 38q14 0 27 -1l-49 -12l-37 -37l12 -37l25 -25l86 -24l86 24
l13 13v12q-11 15 -37 24h37q16 -5 36 -12v-148zM714 591v24l-49 -37h-37l-25 13v-74l-49 -49q21 16 61 49q16 18 50 49zM345 689v25h-13v-25h13zM332 689v25h-12v-25h12zM431 345v197h-13v-197h13zM418 283v259h-12v-259h12zM529 652h-37l-24 25h-37l-25 -12l-12 -37
l-25 -25l-24 12l12 13v37l-12 -62l-13 25v-25l-12 12v37l12 25h-24l-13 12q-6 -9 -28 -20q-17 -9 -33 -17h-37l49 -12q43 -34 58 -44q38 -26 65 -30v-381h13l12 184v173l-12 12v12q51 37 72 50q50 32 75 36zM357 246v308h-12v-308h12zM345 246v320h-13v-320h13zM172 468
l-37 49v74l-12 -13h-37q-19 14 -61 37v-12q31 -17 77 -62q35 -37 70 -73zM431 172v74h-13v-74h13zM418 172v50h-12v-50h12zM369 135v25h-12v-25h12zM357 123v49h-12v-49h12zM345 111v49h-13v-49h13z" />
    <glyph glyph-name="U" unicode="U" horiz-adv-x="742" 
d="M707 787l-27 -14h-27l-26 -40q-21 -253 -14 -506h-66l13 -40q-7 -44 -60 -102q-44 -42 -87 -85h-53l-13 13l13 14l27 13v27q-23 5 -67 13l-60 2q-34 1 -60 11l-53 54h-14l-13 493l-40 67l-80 26q12 15 27 27q31 -13 80 -40l80 -80l40 67q24 25 63 49t70 31h67l-40 -14
l-40 -40q20 -65 13 -146l-40 -27l-27 -40v-267l54 -40h53l40 40l13 54v373l-13 27l-27 13l80 27l67 -14q52 31 93 40l14 27zM267 680v27h-14v-27h14zM253 653v40h-13v-40h13zM240 640v40h-13v-40h13zM227 627v40h-14v-40h14zM613 733q-25 -15 -66 -26l-14 -414
q-12 -7 -23 -31q-14 -31 -17 -35q-31 -43 -93 -63l-13 -4q-39 0 -67 13v14l-13 -14v14l-14 -14l-13 14l13 13v0l-13 -13v13h-13l-14 13v334l40 40l40 13v53l-26 40l-27 -13q-27 -58 -53 -80h-27l-27 27v-214l14 200v-400q-7 187 13 374l13 -14l14 -373l13 -27q26 -12 65 -14
q-18 1 68 1q27 -13 54 -27v-40l53 40q5 41 26.5 82.5t53.5 64.5q0 1 -2 141q-1 90 2 149q3 81 13 137q21 -134 14 -267v267q20 -107 13 -214q7 107 -13 214zM253 253h-13v267h13v-267z" />
    <glyph glyph-name="V" unicode="V" horiz-adv-x="853" 
d="M813 800l-64 -38q-21 -30 -34 -102q-7 -30 -17 -89v-199v-93q0 -59 -38 -127q-15 -27 -55 -67q-24 -24 -34 -33q-20 -17 -38 -27q-51 -10 -89 -25q-50 12 -88 25l-13 38l38 -38h63q29 23 51 64q-36 27 -89 76q-1 1 -31.5 50.5t-31 50.5t-38.5 102v127l-26 51l-50 38
l-51 -13l-26 -38l13 -89q66 -64 116 -64q6 0 11 1v-25h-38l-17 4q-28 7 -31 7q-18 6 -28 14t-77 76q-45 45 -88 64l-13 76l13 76h38l-13 -13l38 -38h51l63 13l51 38l-12 51q-38 26 -64 38q73 -8 126 -37.5t103 -89.5q6 -7 16 -31.5t22 -32.5h25v-177l26 -77q18 -22 50 -63
l13 190v191l-25 13v25q8 -1 16 -1q49 0 98 39q5 4 12.5 13t12.5 13q23 14 64 50q37 21 89 13zM356 635v25h-13v-25h13zM368 610v38h-12v-38h12zM394 571v39h-13v-39h13zM381 571v64h-13v-64h13zM305 648v50h-13v-50h13zM292 648v50h-13v-50h13zM279 635v76h-12v-76h12z
M724 254l-127 241q21 54 38 64h13l12 -13v-330q-6 228 13 457l13 -140q0 -16 -6.5 -50.5t-6.5 -50.5v190q0 6 8 25q7 16 5 26v0l12 25v13l13 13q-35 -42 -76 -64l-51 -12l-51 12q26 -11 51 -25v-419l-13 -26l-38 -12q-22 4 -74 61q-41 44 -65 78l-26 89l13 102l13 13v-140
l12 152q0 -245 -2 -117q1 -77 15 -111q-7 114 13 228v-241l12 -25q1 10 1 20q0 18 -6 43.5t-7 37.5v178h-13l-13 13v-13l-38 -13q-14 25 -25 64l-26 25q-50 -12 -101 -25l51 -13l25 -25l13 12v-12l12 12l39 -50v-153l12 115v-102q0 -1 13 -44.5t13 -44.5q28 -61 114 -152h25
v12q17 10 51 26q13 3 38 12q57 24 102 64zM660 190v51h-12v-51h12zM648 165v51h-13v-51h13zM635 152v64h-13v-64h13zM571 216v38h-12v-38h12zM622 140v63h-12v-63h12zM559 203v26h-13v-26h13zM610 127v51h-13v-51h13zM495 229v25l-12 25zM521 203v26l-13 25v-38zM470 241v38
q-6 17 -13 38v-63zM597 114v51h-13v-51h13zM584 102v38h-13v-38h13zM114 571v26h-12v-26h12zM102 559v38h-13v-38h13zM571 89v38h-12v-38h12zM89 571v26h-13v-26h13zM559 76v64h-13v-64h13zM76 559v51h-13v-51h13zM63 571v39h-12v-39h12zM51 584v26h-13v-26h13zM546 76v51
h-13v-51h13zM533 76v51h-12v-51h12zM190 597q-38 -26 -76 -51v-13l-25 -12q-8 11 -64 38v-13q81 -59 153 -140l-38 64l-13 76q23 28 63 51zM622 444l-12 -190v381z" />
    <glyph glyph-name="W" unicode="W" horiz-adv-x="890" 
d="M848 645l-12 -48q-23 -20 -108 -48v-107q-1 -17 -7 -60q-5 -38 -5 -60l24 -238l36 -36l48 -12v-24q-30 11 -84 36q-25 20 -71 59q-41 -72 -132 -107h-71q36 10 59 24l-12 48l-35 24q-58 -67 -132 -96h-71l47 12q22 38 36 48q-9 26 -24 36h-59l-24 -24l12 -24l24 -12h-36
q-11 0 -36 13.5t-36 22.5q-27 33 -48 83v144q0 24 6 71.5t6 71.5q0 121 -36 274l-47 60l-60 24h48q2 0 71 -24l87 -87q60 -63 69 -92v-24l35 36q24 13 75 13q14 0 43 -1t43 -1q52 0 78 13l24 36q-10 15 -36 24l36 -12l24 -36v-24h191l36 36l-36 36q38 -21 60 -48zM609 549
v36h-12v-36h12zM597 537v48h-12v-48h12zM573 358v108l-12 107q-23 -14 -60 -24v-227q34 29 72 36zM776 585l-12 12v-12h-12v-12h-12v12l12 -12h-12l-12 12v-12h-12v12l12 -12h-12l-12 12v-12h-11v12l11 -12h-11l-12 12v-12h-12v12l12 -12h-12l-12 12v-24h-12l-24 -12
l-12 -394v358q6 -179 -12 -346v334h-12v-322h12q-33 -40 -72 -60q-35 12 -71 24v0l-24 12l-12 394l12 12q72 8 107 24h-24v-12l-12 12v0h-11v-12h-12v0h-12v0h-12v0h-12v-12l-12 12v0l-24 -24v-358l-12 -12v84q-1 14 -6 41.5t-6 41.5v167v-334q-18 155 -12 311v-299l-48 -48
l12 -12l12 12q6 -9 60 -36q26 9 36 24h36l23 -12v0v-12l12 12l12 -12l-12 -11v0l12 11h12v-11h-12v-24h12v24h-12l12 11h12q12 -11 24 -23l48 23l24 48l12 -12v-12l12 12v-12h12v12l12 -12q-18 191 -12 382q6 -179 -12 -346v370h-12v-358h12l-24 -24v394l12 12q61 0 55 0
q31 1 52 12zM573 239v48l-12 47l-24 -12q-24 -93 -24 -95v-48q5 -16 12 -36l36 36zM346 191v382q-27 -8 -47 -36l-12 -191v-203q37 21 59 48zM167 334v191h-12v-191h12zM227 119l-24 24v406l24 48v0l-12 -12v48l-12 -24v24l-12 -12v24h-12v12l-12 -24q5 -40 12 -120v-290
v-80l12 -47l24 11zM251 143l-12 12l-12 -12v12l12 -24zM155 155v502h-12v-502h12zM287 131v-12v0v12zM239 597h-12v24h12v-24zM239 167h-12v346h12v-346zM382 155l-12 -12h-12l24 24v-12zM334 143z" />
    <glyph glyph-name="X" unicode="X" horiz-adv-x="879" 
d="M837 135l-37 -12l-37 -37h-135q-76 46 -136 99l-49 12l-25 -12l-12 -74q-35 -17 -69 -34q-42 -21 -66 -40l-25 -37l-74 25l50 12l24 37v49q-60 18 -123 12l-74 37q-17 -36 -12 -61l12 -13h13l24 -12h-49l-37 25v123q31 9 64 40q40 36 59 46h49l-24 -74l37 -37l37 -12
l49 12l37 49v25q14 28 37 86l-37 62l-9 49q-6 34 -22 55l-43 43h-49l-37 -36v-62l24 -25l-24 -12h-25l-74 74l-49 12v74l12 74h37l-12 -12l12 -25l13 -12h98l37 12l37 37v37q-26 24 -37 37l-37 12q64 -6 123 -37q48 -45 111 -111q3 -5 24 -49h25v-74q8 -27 37 -49l12 99v98
l-37 37h62q37 27 74 55q42 34 61 68h50l-50 -74l-12 -74v-184l25 -25l12 -37h-99l-73 -37q100 -126 283 -135q15 10 24 37l-24 12h24l25 -12v-136zM554 468v197h-12v-197h12zM542 455v210h-13v-210h13zM825 160v25h-13v-25h13zM345 615v50h-13v-50h13zM357 603v49h-12v-49
h12zM369 591v49h-12v-49h12zM382 578v37h-13v-37h13zM320 628v49h-12v-49h12zM295 652v50h-12v-50h12zM308 640v49h-13v-49h13zM332 615v50h-12v-50h12zM283 652v50h-12v-50h12zM800 148v24h-12v-24h12zM271 640v74h-13v-74h13zM788 135v25h-13v-25h13zM775 135v25h-12v-25
h12zM800 197v12l-12 13v-13l12 -12l-12 -12l-13 12v12l-12 13v-37l-12 12v12l-13 13v-50l-12 25v25h-12v-50l-12 25v25l-13 12v-62l-12 25v25l-12 12v-37l-13 25v12l-12 12v-24h-12l12 36l-12 -12v-24h-13l-12 24v12l-12 13v-49l-13 12v37l-12 12v-49l-12 24v37l-12 13v-50
l-13 25v25h-12v-13l-12 13v0l-13 12v12l-12 -12v-25l-12 13v12q17 -36 12 -62v25l12 12v-49h13v12l12 13v-49l12 12v-12l13 24v-37l12 13h12l-12 -13v-24h12v24h-12l12 13q19 -15 60 -37q47 -25 63 -25h49l37 12zM652 431l-37 12v160q0 11 25 160v-25l-12 13v-25h-13l13 -12
l-13 -12l-12 12v-25h-12v13l12 -13l-12 -12l-13 12v-12l-12 12v-246l-12 -12h-25l-12 -13h-49v-12l-13 12v-12l-12 12v-36l-12 24v0l-13 12v-98q-18 48 -12 98v-24l-12 12v-123q-19 48 -12 111v-49h-13v-123q-18 48 -12 98v-49l-12 12v-98l-13 24v25l-12 -74l-12 12v13
l-13 -13v-24l-12 12v12q-28 -5 -76.5 12.5t-71.5 37.5v0l37 -37q45 -14 136 -37l24 12l13 25v-13q38 59 61 111q13 29 25 58q16 32 37 53v0h12v12h12v0h13v12h12v0h25v0q48 20 110 13zM431 455v99q-13 3 -49 -12q-19 17 -62 49l-25 37h-37l-12 -13l-24 -12h-37
q-34 -19 -99 -61q-23 14 -61 24v-24l98 -74l12 12l-12 25l12 49l25 37l49 12h37l12 -25v13h13l12 -25v12l12 13v-25l13 -12v0l12 12l12 -98q-8 50 13 86v-86l12 -25v25l12 24v-61h13v12l12 12v-12l12 12l-24 50l12 37l12 -13v-24l12 24v-74h13zM443 295v25h-12v-25h12z
M123 578v25h-12v-25h12zM431 258v37h-13v-37h13zM111 578v25h-13v-25h13zM98 578v25h-12v-25h12zM86 566v37h-12v-37h12zM74 566v49h-12v-49h12zM62 578v37h-13v-37h13zM49 591v24h-12v-24h12zM418 209v49h-12v-49h12zM406 197v37h-12v-37h12zM135 308h-12v-37zM111 246v49
l-13 -24v-25h13zM86 246v12h-12v-12h12zM603 455l-12 62l12 49v-111z" />
    <glyph glyph-name="Y" unicode="Y" horiz-adv-x="867" 
d="M825 800q-53 -35 -88 -76q-26 -92 -26 -114q0 -21 6.5 -63.5t6.5 -63.5l-13 -115l26 -25v-26q-40 6 -77 -12q-18 -15 -41.5 -50.5t-42.5 -85.5l-17 -42q-47 -85 -178 -127h-102l-25 25l-38 13v76q0 11 8 45q8 29 5 44h38v-13l-13 -12h-13l26 -51h63l76 38l38 51v38
q-14 15 -30 30t-33 21l-25 38q-50 -20 -102 -13q-26 16 -76 51q-6 4 -153 127h-25v76l13 76h63q-27 -9 -38 -25l38 -25h51l63 12l51 38v26l-51 51h-25q84 -6 140 -39l63 -50l38 -64v-25l38 -26q-7 -39 13 -76q38 -38 64 -63h25l13 101v127l-38 38l38 -12q56 13 111 61
q4 3 92 91h63zM356 622v26h-13v-26h13zM368 610v25h-12v-25h12zM381 597v25h-13v-25h13zM343 622v26h-13v-26h13zM394 571v26h-13v-26h13zM330 635v25h-13v-25h13zM305 648v25h-13v-25h13zM317 635v25h-12v-25h12zM292 635v51h-13v-51h13zM279 622v64h-12v-64h12zM610 267
v38h-13v-38h13zM724 737l-13 -13h-13v-26h-12v-12h-13v-13h-13v-13h-12v-12h-13v-292h-13q-18 139 -12 292v-305q-20 152 -13 305v-318l-13 13v13h-13v-26l-12 13v13l-13 12v-51l-13 26v25h-12v-114q-20 62 -13 127h-13v-152h-12v25h12v-13q-15 -10 -25 -38v-38l-13 13v25
l-13 -25v-38h-12v12l-13 13v-51l-13 38l-12 -63l-13 38l-13 -51l-12 26v12h-13v-38l-13 13v25h-13v-38l-12 13v25h-13v-25l-25 25v-12q-10 27 -26 38q-3 -13 13 -51l25 -13h38l26 -13l101 39l64 63v-63q-8 51 13 88v-76q-1 7 -1 14q0 13 5 31q7 25 8 31v64q38 38 77 76v-51
q-5 27 12 64h26l25 13l13 317v0l38 76v-12zM597 241v51h-13v-51h13zM483 343v51h-13l13 -26l-13 13v38l-26 25v-50l-12 127h-13v-115l-13 115q-27 11 -54 46q-35 45 -47 55q-27 -9 -64 -38h-25q37 -20 76 -13l13 -25v13h25l-13 -26v13l26 -25q30 -49 38 -102q17 -19 51 -51
q18 -9 51 -25zM584 216v63h-13v-63h13zM356 444v51h-13v-51h13zM368 406v51h-12v-51h12zM571 190v77h-12v-77h12zM559 152v51h-13v-51h13zM330 368l-25 76l-13 13v38q-16 11 -25 38l-38 13h-39l-25 -25v-77q31 -32 46 -44q26 -21 56 -32h63zM546 140v38h-13v-38h13zM114 559
v25h-12v-25h12zM102 533v51h-13v-51h13zM89 533v51h-13v-51h13zM76 546v38h-13v-38h13zM51 559v38h-13v-38h13zM508 102v38h-13v-38h13zM63 546v38h-12v-38h12zM165 559h-25q-29 -37 -38 -64q-42 22 -77 64v-38q35 -14 64 -38q11 -11 23.5 -23t27.5 -16l-13 64zM394 25v26
h-13v-26h13zM673 381l-13 63l13 77v-140z" />
    <glyph glyph-name="Z" unicode="Z" horiz-adv-x="796" 
d="M758 42q-6 -19 -14 -42h-14v28l-28 28l-562 -14l-28 -14v-14l28 -14h-28l-28 28q7 39 38 77q11 14 60 63l169 365l-28 42l-56 14l-56 -14q-29 -56 -57 -112l28 -28q-11 -17 -42 -28q-29 29 -39 48.5t-17 63.5l-84 -28v98l14 85h42l-14 -28l42 -28h56l71 14l56 42v28
l-14 28q-31 11 -42 28h-29l43 14l42 -14q14 -17 49 -42t49 -42l42 -14h98l67 67q39 37 74 59l56 14l-56 -56q-9 -33 -28 -84q-44 -74 -127 -225q-33 -75 -98 -224q25 -15 98 -15q20 0 98 29q-23 59 -70 112h-42q41 20 70 14q36 -20 75 -61q50 -52 66 -65t70 -29v-154z
M421 618v28h-14v-28h14zM323 660v42h-14v-42h14zM309 646v56h-14v-56h14zM674 126v28q-20 20 -40 39q-24 26 -30 46v-99l-15 28v28h-14v-56l-14 28v28h-14v-56l-14 28v28h-14v-56l-14 28v28h-14v-56l-14 28v28h-14v-56l-14 28v28h-14v-56l-14 28v28h-14v-56l-14 28v28h-14
v-42h-28l-14 14v28h-14v0q20 33 56 99q13 38 42 112q55 125 126 211v0l14 14v0q16 12 43 56l14 56v-28h-14v-14l-15 14v-42l-14 14v-28l-14 14v-28l-14 14v0l14 -14l-42 -42h-154l-42 42q-25 -33 -56 -42h70l28 -15l14 -28l14 14v-126l-14 14v-56q14 27 14 84t14 84v-70
l14 -14l14 14l-28 42l28 14v-14h14l-14 14v14h28q2 -13 -3 -42t-11 -42q-31 -70 -70 -98v-14l-14 14v0l-14 14v-84h-14v0l-14 14v14q-6 -43 14 -98l-14 -14h-14v28l14 28l-14 42v-70l-14 14v-99l14 -28h28l-14 -14h-28l-28 28l14 28v29l-14 14v-28l-14 -15v-28l-14 14v-14
l-14 -14l14 -14v-14h435zM730 84v98h-14v-98h14zM744 70v98h-14v-98h14zM716 84v98h-14v-98h14zM449 365v28h-14v-28h14zM435 337v28h-14v-28h14zM98 561v28h-14v-28h14zM70 575v29h-14v-29h14zM84 561v28h-14v-28h14zM42 575v43h-14v-43h14zM182 561l-56 -28h-28v-28
l-28 14l-14 28l-28 -14v-14l42 -14l84 -84q1 7 -14 84zM379 168v85h-14v-85h14zM365 168v57h-14v-57h14zM196 84v28h-14v-28h14zM182 84v28h-14v-28h14zM547 547h-14v28h14v-28z" />
    <glyph glyph-name="a" unicode="a" horiz-adv-x="775" 
d="M738 160l-12 -12h-184v147l-37 13q-25 -13 -50 -25l-24 -25l-25 -86q-13 -27 -49.5 -72t-61.5 -63l-73 -37h-62q40 7 74 37v49l-37 25l-49 12h-86l-37 -25v-24v0h-13l-12 12v99l25 49q81 48 135 111l62 24h12q-76 -38 -99 -111l13 -61l49 -25l49 13l25 24l24 49l-2 74
q-2 45 2 74l9 66q0 10 4 33l41 82l20 41q17 16 33 33l66 65l-13 37l-37 25h-61l-37 -50l12 25l37 37h86q23 -7 62 -25q58 -35 111 -98q2 -2 20 -40q10 -23 41 -34v-406l25 -25q15 11 24 37v-49zM455 652v25h-12v-25h12zM443 628v37h-12v-37h12zM431 628v24h-13v-24h13z
M615 345v209h-12v-209h12zM418 615v25h-12v-25h12zM677 172v333h-12v-333h12zM406 591v24h-12v-24h12zM529 394v148l-12 12q-50 -36 -70 -119l-4 -17v-49q49 12 86 25zM382 542v49h-13v-49h13zM369 505v61h-12v-61h12zM357 492v50h-12v-50h12zM345 480v37h-13v-37h13z
M591 185v135h-13v-135h13zM652 172v37q-18 185 -12 382h-25v-13q-15 56 -73 99h-13q-36 -12 -90 -88q-35 -55 -70 -109v-86q0 -16 6.5 -49.5t6.5 -49.5q0 -52 -13 -86l-61 -61l-13 12l13 25v12l-13 -25v-24l-12 12v0l-12 -12v-25l-13 37l-12 -37l-12 12v13h-37l74 -37
q86 57 123 135l12 62l-12 61l12 62v-62q-7 50 12 86v-135h37q45 25 62 25h37l12 -13l12 13v24h-12v-24l-12 12v12h-12v-12l-13 12h-12v-24l-12 12v12l-13 -12v-12l-12 12l-12 -12h-25v-25l-25 25v73l13 62l74 98h49l24 -24l13 12v-394h24v0h13v13l12 12v-25h12zM357 234v221
h-12v-221h12zM418 246v49h-12v-49h12zM345 209v246h-13v-246h13zM332 185v49h-12v-49h12zM382 148v24h-13v-24h13zM271 62v12h-13v-12h13zM148 172l-13 13l13 -13h-25v13l-12 24v-24l-13 24v-37l-12 25v12l-12 13v-50l-12 13v0v0l-13 -13l-12 13v-13l-12 -24l61 24h62z
M25 123v25h-13v-25h13z" />
    <glyph glyph-name="b" unicode="b" 
d="M570 303l-12 -85q-32 -43 -85 -60h-206q-62 -25 -134 -97q-12 -14 -36 -37l-49 -24h-48q30 9 63.5 38.5t45.5 58.5l12 48v473q24 12 49 24v25q8 34 72 78q47 33 97 55h73l-48 -12l-37 -36v-25q15 -19 73 -48h73q16 5 36 12l24 24l-12 12h-24q37 6 73 -12v-109l-25 -36
q-52 -20 -72 -49l60 -48q37 -99 37 -170zM545 642v25h-12v-25h12zM533 630v37h-12v-37h12zM521 618v49h-12v-49h12zM509 606v49h-12v-49h12zM497 606v49h-12v-49h12zM485 594v61h-12v-61h12zM473 594v61h-12v-61h12zM436 630v25h-12v-25h12zM315 703v36h-12v-36h12zM303 715
v24h-12v-24h12zM327 691v24h-12v-24h12zM412 558v24q-14 14 -27 28q-17 14 -33 20q-12 -4 -30.5 -18t-30.5 -18l-12 -24v-25zM218 667v24h-12v-24h12zM206 630v37h-12v-37h12zM545 606v12l-24 -24l-36 -12l-37 12v0q-17 35 -12 61v-49l-36 36q-59 33 -133 37l-37 -49
l-12 -72l-12 24v-24l-12 12v-170l12 -182h279l36 37l12 60q-18 60 -12 121v-133l-12 -12v-12l-12 -12v12h-12v-12v0v-12l-12 -25v37h-12v-12l-13 -25v37h-12v-12l-12 -25v37h-12v-12l-12 -25v37h-12v-12l-12 -25v37h-12v-12l-12 -25v37h-13v-12l-12 -25v37h-12v-12l-12 -25
l-12 12l12 13l-12 12v-25h-12l12 37l-24 12q5 -25 -12 -61l-25 109q8 50 16 101q10 62 10 102q0 15 -1 28q29 33 48 97q60 -29 109 -37l24 -36v-49l-36 -60l85 73q4 5 12 12l26 16t22 20zM194 594v61h-12v-61h12zM388 497h-109v-49h24q3 0 34 11q36 13 39 14zM497 376
q-16 54 -73 97l-24 -37q-78 -30 -121 -24v-60l36 -25l49 -12h97l24 24zM182 582v24h-12v-24h12zM194 388v182h-12v-182h12zM182 170v388h-12v-388h12z" />
    <glyph glyph-name="c" unicode="c" horiz-adv-x="536" 
d="M510 331q-19 -82 -13 -165l-28 -56q-68 -21 -166 -13l-193 -97q-81 151 -96 207q0 1 -7 55t-7 55v111q0 54 14 124q9 28 27 82q18 26 56 69q40 36 151 97h83l-55 -14l-42 -41l-13 -55q84 -13 112 -19q64 -14 108 -37q14 29 14 69v14h-41q57 8 96 -14v-151l-82 -42
q-17 -12 -48 -47q-35 -37 -49 -49l-28 -14q-14 -9 -41 -28h-41v28h27q28 7 59 45q28 34 38 65q-20 62 -69 97h-42l-27 -14q-10 -30 -41 -55v-166l13 -69l42 -55l55 -14h55q19 0 51 14t46 28l-14 55l-42 41h111zM483 621v27h-14v-27h14zM469 607v41h-14v-41h14zM455 593v55
h-14v-55h14zM441 579v55h-13v-55h13zM428 579v55h-14v-55h14zM414 566v68h-14v-68h14zM400 566v68h-14v-68h14zM221 690v41h-14v-41h14zM207 703v28h-14v-28h14zM234 676v27h-13v-27h13zM110 648v28h-13v-28h13zM97 607v41h-14v-41h14zM483 345h-14v14l-14 -166v28l-14 -14
v-28l-13 -13v41h-14v-14v0v-27l-14 -14v41h-14v-27l-14 -28v55h-13v-27l-14 -28v55h-14v-27l-14 -28v55h-14v-27l-13 -28v55h-14v-27l-14 -28v55h-14v-27l-14 -28v55h-13v-27l-14 -28v55h-14v-27l-14 -28v69l-13 14v-28l-14 -14v55l-14 14v-27l-14 -28v345q21 -124 14 -248
v262q21 -138 14 -290v110q-1 15 -8 56q-6 35 -6 55v55q25 43 55 69l69 14l55 -14l42 -41v-83l-14 -28l69 69q16 16 69 42v27l-28 -27l-41 -14h-42v14l-13 27v-14l-42 42q-70 8 -151 41l-42 -55l-14 -69l-13 28v-276q0 -15 8 -55q7 -35 5 -56q9 -8 42 -41l82 -14h138
q7 0 33.5 11t35.5 17l28 41l14 -14v166zM83 579v55h-14v-55h14zM69 566v41h-14v-41h14zM97 510v42h-14v-42h14zM55 552v27h-14v-27h14zM83 262v290h-14v-290h14zM69 221v317h-14v-317h14zM359 607h-14v27h14v-27z" />
    <glyph glyph-name="d" unicode="d" horiz-adv-x="624" 
d="M594 315l-12 -60q-34 -52 -85 -97h-255q-54 -88 -169 -146l-73 -12l61 24l48 49l36 121v436q0 21 -18 68q-16 41 -30 66q-47 29 -97 36h61l60 -24q34 -40 85 -73q71 52 158 97h60l-36 -12l-36 -36l12 -37l48 -36h36l25 12v36q-25 11 -49 25h49q10 0 37 -15q24 -13 35 -22
q28 -34 49 -85v-315zM545 655v36h-12v-36h12zM558 630v49h-13v-49h13zM315 727v25h-12v-25h12zM582 303v327h-12v-327h12zM327 691v48h-12v-48h12zM206 655v24h-12v-24h12zM570 267v400h-12v-134l-13 12q3 15 -6 42.5t-6 42.5q-24 25 -48 49l-24 -24h-134l-12 36h-36
q-14 -10 -37 -49l-48 -24v-182l12 182v-145q-6 37 12 72v-303l24 -36h231l60 24v61l12 12h13q-16 -36 -13 -48v24l13 24v-36h12zM545 218v37h-12v-37h12zM521 194v24h-12v-24h12zM206 158v48h-12v-48h12zM182 121v73h-12v-73h12zM521 291l-12 12l-12 -24v-12l-12 12l-12 -24
v-13l-12 25h-13v-25l-12 25h-12v-25l-12 25h-12v-25l-12 25h-12v-25l-12 25h-12v-25l-13 25h-12v-25l-12 25h-12v-12l-24 36v-73h-12v388h12v-36l12 12v24l12 -12v12l12 12v12h24v12h122v-12l12 -12l12 37q-6 -170 12 -328v315q-6 -169 12 -327v315q-6 -157 12 -315h-12
l12 291v-315zM194 145h-12v473h12v-473zM436 315v158l-24 -37l-48 -12l-37 12l25 12h12q38 22 60 49l12 48v37l-36 36h-48l-37 -24q-24 -71 -24 -73v-36q0 -14 6 -42.5t6 -42.5l-12 -73l73 -12h72z" />
    <glyph glyph-name="e" unicode="e" horiz-adv-x="507" 
d="M483 495q-36 -13 -80 -45q-36 -28 -73 -56l-25 -64q7 65 -13 114h-51l-38 -12q-28 -24 -51 -64v-101l13 -51l38 -38h64l38 38v13l-13 12h-13v13h102l38 -25h51v-166q-37 -18 -76 -12h12l13 25v51h-102l-88 -13l-26 -51l13 -38l38 -25h-51q-19 8 -51 25q-16 18 -50 51
l-51 38l-13 26v25q-11 16 -38 25v420l25 12q8 19 26 51l25 25q77 79 140 102h63l-38 -13l-38 -38q13 -25 26 -51q8 -4 33 -14.5t30 -10.5h114l26 38l-26 13h-12q39 7 76 -13q-10 -25 -13 -76t-13 -76l-50 -26h-115l13 26v25l-51 38l-51 -12l-38 -64v-76l77 25h254zM356 444
h-13v39h-13v-26l-13 -13v39h-12l-13 -13v13h-13l-12 -13v13h-13l-13 -13h-25v-13l-13 13v-13l-13 -13v13h-12v-13l-13 -12v12h-13v-25l-12 -13v26h-13v-51h13v13l63 50l89 26v-26h25l13 -12h13l13 25v-13zM444 597v13l-12 -13l-26 -13l-12 -13h-51l-13 26l13 25v-12l-13 -26
v38l-13 -25l-25 38l-25 13h-64l-13 25h-38l-25 -13q-27 -37 -38 -63v-368l13 -51l50 -51q53 8 102 38h89q18 0 89 -25v25l-64 25q-21 -3 -63 -12l-27 -9q-15 -5 -26 -5q-6 0 -11 1l-12 -13v13l-13 -13h-13l13 13h-13v0h-13v-13h26l-13 -12l-38 -13l-38 38l13 25v0l-13 -25
l-13 13l13 343q5 22 13 63l50 51h39l50 -13q29 -22 51 -63h64q10 15 38 25zM127 190h-13v343h13v-343z" />
    <glyph glyph-name="f" unicode="f" horiz-adv-x="636" 
d="M606 509q-34 -13 -75 -43l-70 -54l-25 -60q7 61 -12 109h-48q-25 -12 -61 -37l-24 -36v-206l24 -24h-48l-73 -49q-13 -25 -43 -56t-54 -41q-44 -19 -97 -12q47 27 85 36q41 45 73 219l-25 181q0 10 5.5 31.5t6.5 29.5q-1 16 0 48q3 19 22 58q16 35 16 60q0 8 -1 16
q57 36 85 60l29 29q10 10 40 24l16 8h60l-36 -12l-37 -36q13 -25 25 -49q37 -10 60 -24h73q16 5 36 12l25 24l-13 12h-24q38 6 73 -12v-97l-24 -48l-49 -25h-109l24 25q-7 27 -48 60l-61 -12l-36 -60v-73q30 13 77 24q51 12 80 12q15 0 42 -5q31 -6 43 -7h73zM485 461v12
l-12 -12v36h-12v-12l-13 -24v36h-12v-12h-12v12h-12v-12h-12v12h-12l-12 -12h-12l-12 -12v12h-13v-12l-12 -12v12h-12v-12l-12 -13v13h-12l-12 -13v-36l60 61l85 12l24 -24h13v-25zM570 606v12q-5 -7 -61 -36h-24l-37 48q-109 19 -157 49q-41 -33 -73 -97v24l-12 -12v12h-12
v-12l-12 -339h12v0l12 339q18 -194 12 -400h12q5 36 12 109q1 19 1 152q0 92 12 151v-412q-6 218 12 424v-424q-6 230 12 448v-24l12 24v-12l12 12v0h97l48 -24l13 -48h36q24 12 73 36z" />
    <glyph glyph-name="g" unicode="g" 
d="M570 218q-21 -28 -69 -52q-43 -22 -110 -22q-14 0 -42 1.5t-42 1.5q-54 0 -89 -14q-48 -50 -109 -109l-48 -24h-61q49 22 85 48l36 49l12 48v461l25 12q12 24 36 73q35 29 97 73q52 29 121 36l-36 -12l-37 -36v-37q15 -4 36.5 -24t36.5 -24h73q16 5 36 12l24 24l-24 24
h24l25 -12v-109l-12 -48q-52 -6 -85 -37l72 -60l25 -73v-170zM412 545v37q-17 17 -22 21q-12 10 -26 15h-25q-17 -17 -34 -33q-20 -21 -26 -40h133zM558 303l-13 73v-146zM558 594v24l-25 -24l-48 -12h-24v73q7 -38 -13 -73v48l-12 -24l-24 24q-74 23 -133 49
q-47 -43 -61 -121v12l-12 -25v-327l279 -12l48 36l12 61q-17 73 -12 133v-133l-12 -24v12l-12 -12v-12h-12l-12 -12v-25l-12 12v13h-12v-25l-13 12v13h-12v-25l-12 12v13h-12v-25l-12 12v13h-12v-25l-12 12v13h-12v-25l-12 12v13h-13v-25l-12 12v13h-12v-25l-12 12v13h-12
l12 -13h-12v37h-24v-49l-25 109q5 29 13 85q-1 25 0 73q5 54 48 158q73 -11 121 -25q15 -35 24 -97l-36 -48q43 49 69 68q20 14 77 41zM400 497h-121v-61q35 18 73 12q24 25 48 49zM497 327v37l-12 60l-49 37q-36 -25 -72 -49q-38 5 -85 -12v-48l36 -37l49 -12h109zM255 230
h-13v315h13v-315zM242 255h-12v266h12v-266z" />
    <glyph glyph-name="h" unicode="h" horiz-adv-x="827" 
d="M788 800l-61 -24l-36 -49l-12 -582h-170l24 25v206h-36l-73 -49q-37 -38 -37 -117q0 -15 1 -28l24 -37h-12q-79 -93 -206 -145q-98 8 -146 24q-49 52 -49 98q0 6 1 11l24 25l-12 -97q32 -13 97 -13q18 0 85 25l36 48l12 231v242l-12 12q-17 -17 -21 -22q-10 -12 -15 -26
l12 -13h-109q-35 27 -61 37v73l12 72h73l-48 -24l24 -24l36 -12q40 20 73 60l-12 49q-36 12 -73 24q83 -5 134 -36q43 -26 109 -97l24 -61v-218q71 63 145 109v230q61 24 182 73h73zM642 667l-12 24l-24 -12v-449h24zM327 655v24h-12v-24h12zM339 642v25h-12v-25h12z
M242 703v36h-12v-36h12zM230 691v48h-12v-48h12zM218 655v60h-12v-60h12zM206 630v61h-12v-61h12zM194 618v61h-12v-61h12zM182 606v61h-12v-61h12zM170 606v49h-12v-49h12zM158 594v61h-13v-61h13zM145 594v61h-12v-61h12zM133 606v49h-12v-49h12zM121 606v49h-12v-49h12z
M109 618v37h-12v-37h12zM545 400v12q-37 6 -72 -12q-26 -22 -61 -63q-41 -47 -48 -70l-37 -12v327q-3 4 -27 45q-17 27 -33 40l-37 12v-37l-24 -12q-8 -27 -36 -48h-49l-12 12h-12l-24 24h-12v-24q45 -33 121 -36v36l24 24l36 12l25 -12l12 -24l24 -12l12 -376l12 -24v12
q18 -35 12 -73v97q19 -47 13 -85v97q19 -35 12 -85v85q22 62 48 109q62 51 133 61z" />
    <glyph glyph-name="i" unicode="i" horiz-adv-x="433" 
d="M413 138q-15 -11 -46.5 -27t-41.5 -23q-28 -29 -75 -76v38q0 14 8.5 45.5t16.5 41.5q-14 11 -25 38l-37 13l-38 -13l-25 -37v-38q14 -24 25 -62l-12 -38q-24 38 -63 87l-100 50v75l12 76h51l-26 -13l13 -25l25 -13h50l13 325l-13 25q7 39 -25 88q-25 12 -50 25h-25v25
q66 -17 112 -63l13 13l-13 25l13 62l37 38l63 -12l38 -38v-50q-6 -17 -13 -38q39 22 62 50q37 18 63 13l-25 -25l-37 -12q-25 -50 -51 -100v-351h75l13 13v25l-12 13h-26q39 7 76 -13v-137zM250 662v26q-12 4 -31.5 18.5t-31.5 18.5l-25 -25l13 -38l38 -37zM275 663l-63 -63
l-62 63l-13 -13l63 -63q7 6 75 76zM263 587l-51 -25l-50 26v-13l38 -38v-325h25v313q26 37 38 62zM400 188v25l-13 -26v0l-12 -12v12h-13v-12h-12v0h-13v-13h-12v13l-13 -13v-12l-12 -25v37h-13v-50q61 54 88 63h13zM163 188h-26l1 -26zM125 112v50l-13 -12v12l-12 -25v38
l-13 -13v0h-12v13h-13v0l-12 -12l-25 37q9 -28 38 -50l37 -13z" />
    <glyph glyph-name="j" unicode="j" horiz-adv-x="547" 
d="M521 618l-12 -73h-48l24 25l-24 24h-25l-12 12h-24l-12 -218v-206l36 -37h-12q-73 -85 -145 -121l-73 -24q-85 10 -146 24q-21 51 -48 85v24l24 25v-97l49 -13h85q39 21 84 73v473l-24 12q-37 -10 -60 -24v-24h24l12 -13h-36q-17 6 -37 13v145l49 12q36 37 72 73l49 12
q-9 -31 -36 -85l12 -36q12 -12 36 -37h24l25 13l24 48v24q-11 25 -37 73l49 -12q17 -12 48 -36q12 -14 37 -37l48 -24v-73zM497 582v97l-12 -61l-49 49q-38 -22 -60 -49h72zM339 109v521h-109l-24 37l-36 -12l-25 -25v49h-12v-85h12l25 24h60l61 -12v-545l12 557h-12l12 -12
v-521zM230 24v24l-12 -12v-12h12zM182 24v12h-12v-12h12z" />
    <glyph glyph-name="k" unicode="k" horiz-adv-x="729" 
d="M694 0h-47q-19 25 -59 71l-88 76q-48 46 -53 100l12 47q-28 65 -83 106h-94v-200l24 -24h-212l-70 -23v-12l11 -12l24 -11l-12 -12h-23l-24 35l12 35l59 48l70 11l-12 459q-27 79 -129 106h47q10 0 37 -14q24 -13 34 -21q11 -13 35 -36q12 -7 35 -23q24 -21 48 -43
q28 -22 58 -28v-11l-12 -12v-130h36q7 0 44 16q42 18 50 20q28 45 35 94l-23 23h-24l-12 -11v-12l-12 -12l24 -24v-11h-24q-28 33 -35 70l12 47l35 36l59 11h200l-59 -23l-35 -47v-35l23 -36h36q-25 -37 -71 -94q-14 -14 -58 -39t-48 -31q89 -20 130 -59l23 -36l36 -247
l47 -70h11zM494 647l-35 24h-35q-26 -9 -36 -24v0l24 12q20 -7 59 -47q8 25 23 35zM376 588q-17 35 -11 83q-6 -48 11 -83zM576 329q6 -36 -11 -70v82l-12 -106v106l-12 -23v47q5 -37 -12 -83v83l-11 -12v0l-12 -24v47h-12v0l-12 -11v23h-11v12l-12 -12v12l-12 -12v12h-12
v12l-11 -12v12h-12l-24 12v11l12 12q16 -4 141 47l12 59l-24 12h-23l-12 11l12 12v-23h-12v35q5 -25 -12 -59l-11 12l11 23q-3 -11 12 -47q-14 -19 -49 -45.5t-57 -36.5q-29 -8 -82 -23l-47 11v200v0v-211h106l11 -12h24l12 -12v12l35 -12q10 -17 35.5 -47t35.5 -47v-24
q4 -15 23.5 -35.5t23.5 -34.5v12q15 65 11 105zM576 153l-11 -12v12l11 -24v24zM235 424v94l-11 94h-24l-24 -12v-12q18 -188 12 -388v400l12 -24v24q12 -62 12 -188t12 -188v105q1 14 6 48q5 30 5 47z" />
    <glyph glyph-name="l" unicode="l" horiz-adv-x="709" 
d="M675 538l-62 -25l-38 -63q-12 -62 -25 -125q17 -66 63 -112v-25l-150 -150q-13 -10 -47 -23t-53 -15h-50l-17 4l-33 8l-25 17q-18 10 -50 33l-76 76h50q30 -36 38 -75q22 -13 87 -13l50 12q21 41 63 75v13l-350 12l-50 51q25 -13 50 -25l25 -26l25 13q-40 22 -75 62
l12 38l38 38h13q-29 -22 -38 -50l37 -38h50l13 250l-12 237q-21 41 -63 75h-38l25 13h38l78 -78q46 -44 84 -72l63 -12q-11 -14 -25 -25v-313l37 13l38 -13l38 12v38q-37 19 -88 12v138q22 -51 50 -88h50l25 9q30 10 60 40q50 49 52 51q34 27 95 27q10 0 18 -1zM538 437v26
h-13v-26h13zM513 412v26h-13v-26h13zM488 400v25h-13v-25h13zM563 450v12l-13 13v-13l13 -12l-13 -13l-13 13v0l13 -13l-50 -50h-125v13l-13 -13l-25 13v-25h151q23 28 62 50zM250 625v13l-25 12l13 -25h12zM225 637v26l-12 -1v-25h12zM175 675v25h-13v-25h13zM538 262v26
l-13 -1v-25h13zM550 250v25h-12v-25h12zM463 312v51l-13 -1v-50h13zM588 175v50h-13v-50h13zM450 300v25h-13v-25h13zM538 200v25l-26 13l13 -26l-13 -12q-19 74 -12 163h-13v-201q-18 101 -12 201v-63h-13q-3 -15 5 -34q8 -22 8 -29q0 -67 -13 -100q-18 76 -12 151v-13h-13
l13 -25l-13 -25l-12 13v24h-13l13 -25l-13 -25l-12 26v25h-13l13 -26l-13 -25l-12 26v25h-13l13 -26l-13 -25l-12 26v25h-13l13 -26l-13 -25l-12 13v0l-13 -13l-12 13v13h-13l13 -13l-13 -13l-12 13v13h-13v362q6 -188 -12 -363q6 188 -12 375h-26l-25 26v-25l13 12l13 -25
v0v13l12 -201l-13 -187l13 -13q113 6 213 -12l12 -50l-13 -38l-12 13v-25l-13 -13l-12 13v-13l-13 -12h-12v-13h-25l63 13q75 50 125 125zM550 137v26l-13 -1v-25h13zM525 112v26l-13 -1v-25h13zM513 100v25h-13v-25h13zM475 75v25h-13v-25h13zM250 225h-13v212l13 1v-213z
" />
    <glyph glyph-name="m" unicode="m" horiz-adv-x="890" 
d="M848 0h-48l-72 24q-43 44 -86 87q-60 63 -69 92v24l-36 -36q-25 -14 -73 -14q-15 0 -45.5 2t-45.5 2q-49 0 -74 -14l-24 -36q10 -15 35 -24l-35 12l-24 36v24h-191l-36 -36l36 -36q-38 21 -60 48l12 48q21 18 107 48v107q1 17 7 60q5 38 5 60l-24 238l-35 36l-48 12v24
q30 -11 83 -36l72 -59q40 71 131 107h72q-37 -10 -60 -24l12 -48l36 -24q57 66 131 96h72l-48 -12q-10 -18 -35 -48l11 -24l12 -12h60l24 24l-12 24l-24 12h36q11 0 36 -13.5t36 -22.5q27 -33 47 -83v-144q0 -24 -6 -71.5t-6 -71.5q0 -121 36 -274l48 -60zM561 681v0v0z
M704 143v502h-11v-502h11zM621 645l-12 24l-12 -12l12 -12l12 12v-12zM681 167q-5 40 -12 120v290v80l-12 47l-24 -11l-12 -12l24 -24v-406l-24 -48v0l12 12v-48l12 24v-24l12 12v-24h12v-12zM693 275v191h-12v-191h12zM561 454v203q-38 -21 -60 -48v-382q27 8 48 36z
M334 573v48l-12 36l-35 -36l-12 -60v-48l12 -47l23 12q24 93 24 95zM525 657l-12 12l-12 -12l-11 12l-48 24q-26 -9 -36 -24h-36l-24 12v0v12l-12 -12l-12 12l12 11v0l-12 -11h-12v11h12v24h-12v-24h12l-12 -11h-11q-12 11 -24 23l-48 -23l-24 -48l-12 12v12l-12 -12v12h-12
v-12l-12 12q18 -191 12 -382q-6 179 12 346v-370h12v358h-12l24 24v-394l-12 -12q-64 0 -55 0q-32 -1 -52 -12l-12 -12l12 -12v12h12v12h11v-12l-11 12h11l12 -12v12h12v-12l-12 12h12l12 -12v12h12v-12l-12 12h12l12 -12v12h12v-12l-12 12h12l12 -12v24h12l24 12l12 394
v-358q-6 179 12 346v-334h12v322h-12q33 39 71 60l72 -24v0l24 -12l12 -394l-12 -12q-73 -8 -108 -24h24v12l12 -12v0h12v12h12v0h12v0h12v0h12v12l12 -12v0l24 24v358l12 12v-84q1 -14 6 -41.5t6 -41.5v-167v334q18 -155 12 -311v299zM346 251v227q-34 -29 -71 -36v-108
l12 -107q22 14 59 24zM263 215v48h-12v-48h12zM251 215v36h-12v-36h12zM513 657l-35 -36zM490 657l-24 -24v12l12 12h12zM621 287h-12v346h12v-346zM621 179h-12v24h12v-24z" />
    <glyph glyph-name="n" unicode="n" horiz-adv-x="751" 
d="M715 800q-64 -16 -109 -61l-24 -84v-437l-24 -12l12 -36l36 -12l-48 -13q-49 16 -96 75q-42 52 -62 107l-16 65q-15 62 -32 117l-61 73l-12 -24v-364l24 -24h24v-12q-62 8 -97 -13l-133 -133q-48 -18 -97 -12q67 28 121 97l12 97v327l-48 37h-49v-25l12 -12h-24l-12 49
q13 30 73 121l73 12q42 56 109 85l72 12q-38 -21 -60 -48l12 -37l73 -73q20 -41 60 -121q-5 49 12 109q-6 51 -36 97l61 -24h60q65 72 134 97h60zM509 630v61h-12v-61h12zM582 703v36l-24 -48l-49 -36v-376h-24v-12q15 -10 24 -37h12q12 12 24 25v12l-24 12v376h12l12 12
v-328l13 340v-315l12 327zM497 327v352h-12v-352h12zM485 339v340h-12v-340h12zM570 230v85h-12v-85h12zM376 533l-24 37l12 36v-12l-12 -12q-38 48 -73 97l-37 24q-14 -66 -72 -121l-61 48q-16 -8 -33 -16q-21 -11 -28 -20h-12l12 -24q49 5 110 -12v12h12l-12 -12h12
l-12 12l12 12q18 -158 12 -327v339q-3 -41 3 -92q9 -87 9 -90v-157v339l12 -12h12v-388h12q-6 206 12 412q20 -182 13 -364v376q18 -182 12 -363v363l12 12q22 -27 60 -48q10 -26 37 -49z" />
    <glyph glyph-name="o" unicode="o" horiz-adv-x="501" 
d="M477 206l-38 -12l-39 -78q-55 -36 -90 -77q-64 -30 -116 -39q22 29 64 52v25l-13 26q-28 10 -39 26h-77l-13 -13v-13l52 -38l-39 -13q-92 37 -129 103v464h39q4 13 38 91q36 41 91 77l51 13h52l-39 -13q-11 -27 -38 -64l64 -26q40 7 77 -13l13 26v13l-38 38h38
q11 0 40 -15q26 -13 38 -23q26 -39 51 -78v-439zM426 684v26h-13v-26h13zM439 658v39h-13v-39h13zM387 710v25h-13v-25h13zM452 258v413h-13v-413h13zM465 297v284h-13v-284h13zM452 219h-13l-13 13v413h-13l-26 13v26l-13 -13h-39l-12 -13l-129 26l-65 -13l-39 -52v-425
l13 -13l91 -13q21 -17 55 -38q45 -27 61 -27h25l13 26l26 13l26 52zM400 219l-13 -13q7 220 -13 439v-451q6 219 -13 451v-464q5 26 -13 64v-77q7 39 -13 77v-39l-12 26v-90q6 40 -13 90v-51l-13 25v-38l-13 26v-26l-13 26v-26l-13 13v-13l-13 13v-13l-13 13v-13l-13 13h-38
q-13 13 -26 25v0l-13 13v-25l-26 25v181l13 -181v-13l13 13v375l13 -13l13 13l-13 25v-13h13v26l13 -13h13l-13 26v-13h13v13h12v0h13v0h13v0h13v26l78 -26v0h38l13 13l26 -13v-426zM310 271v310l-39 38h-52l-51 -51v-336l38 -38h52q26 38 52 77z" />
    <glyph glyph-name="p" unicode="p" horiz-adv-x="585" 
d="M558 436h-25l-12 12q-116 -47 -125 -50q-73 -27 -129 -34l-12 -73v-97l48 -24v-25l-48 13q-52 -6 -85 -37q-32 -55 -134 -121h-36v12l12 12h24q15 9 42 62q23 46 31 72v460q17 15 75 91q41 55 91 75l40 16h61l-37 -12l-36 -36v-49q60 -18 121 -12l73 -36q12 25 12 60v12
h-24l36 12l37 -24v-279zM533 461l-24 48h-12q-26 -15 -73 -48q-20 -21 -60 -61v12l-25 -12h-12q87 18 170 61l12 12zM412 582l-48 36h-49l-48 -36l-12 -49q18 -59 12 -121q35 18 72 12q39 58 47 74q14 28 26 84zM352 642q-32 14 -97 37q-27 -25 -35 -34q-21 -22 -26 -39
v-412h12v364q39 33 61 72q35 19 85 12z" />
    <glyph glyph-name="q" unicode="q" horiz-adv-x="597" 
d="M568 116q-11 -35 -23 -70q-30 -25 -116 -46q-46 13 -93 23q-34 30 -78 84l-72 90h-47l-35 -23q8 -26 35 -46h-35l-34 11q-39 32 -58 70l-12 208v221l35 11q35 75 59 95q11 10 103 56h46q-26 -8 -46 -35v-23q28 -28 70 -46l34 11l12 12v11l-46 35h46q12 0 37 -13
q22 -12 33 -22q26 -32 46 -81v-382l-35 -24l-23 -34v-23l55 -55q33 -31 61 -50h46l24 35l-12 35q15 -10 23 -35zM394 672v24h-11v-24h11zM383 684v23h-12v-23h12zM348 707v35h-12v-35h12zM417 359v290h-11v-290h11zM162 730v24h-11v-24h11zM406 313v371h-12v-371h12z
M151 730v24h-12v-24h12zM139 730v24h-11v-24h11zM128 719v23h-12v-23h12zM116 707v23h-12v-23h12zM104 696v23h-11v-23h11zM394 267h-11v382h-12q-13 23 -23 47l-35 -24l-46 -11v0h11v-12l12 12v-12l11 12v-12l12 12v-12h12v-324l11 313v-325l12 325h11v-348
q-20 -27 -46 -35l35 -46l46 69v-11zM93 684v23h-12v-23h12zM81 672v24h-11v-24h11zM278 371v232l-35 35h-46l-23 -12l-23 -35v-313l11 -11l12 23h46q16 -5 35 -12v12h12zM487 58l-12 12l-23 -12h-69l-35 23q8 -25 23 -35h93l23 24v-12zM383 93v11l-12 24v-12l-12 23v0
l-11 23v0l-12 12v0l-11 12v-12l-12 23v-11l-12 11v0l-11 23v-23l-12 23v-11l-11 23v0l-12 11v-11l-12 23v-12l-11 12v-12l-12 12v0l-11 12v-12l-12 12v-12h-11v12q25 -28 46 -35q46 -43 69 -104q46 -27 82 -35zM267 162v24h-12v-24h12zM278 139v23h-11v-23h11zM290 116v23
h-12v-23h12zM301 104v24h-11v-24h11zM58 232v23h-12v-23h12zM267 649h-12v23l-12 -11v11l-11 -11v11l-12 -11h-46v11l-12 -11v11l-11 -11v11l-12 -11v0l-11 -12v0l-12 -11v0l-12 -24l-11 -173v-174l23 -24l23 -11l-23 -12l-35 12l-11 23l11 186l-11 197q20 37 58 69h34
q34 -24 58 -35h47v-23z" />
    <glyph glyph-name="r" unicode="r" horiz-adv-x="738" 
d="M703 0q-78 13 -145 73q-43 77 -110 133l-16 88q-12 55 -32 82l-48 48h-61l-12 -121v-121l36 -24l-73 -13q-14 0 -42 6.5t-42 6.5q-24 0 -67 -12t-67 -25l24 -12h13v-24l-37 12l-24 24l12 37q29 37 85 60h36v400l37 12q15 10 24 37v24q78 89 158 109h60l-36 -12l-37 -36
v-49q65 -11 194 -36l12 48l-12 12h25l24 -12v-133l-49 -12q-41 -40 -121 -122q61 -24 121 -48q27 -35 37 -61h12v13v-182q8 -26 24 -73l49 -61l24 -12h24v-24zM558 642v25h-13v-25h13zM545 630v37h-12v-37h12zM533 618v49h-12v-49h12zM521 606v49h-12v-49h12zM509 606v49
h-12v-49h12zM497 594v61h-12v-61h12zM570 594l-12 24l-25 -24l-36 -12h-24l-12 24l12 24l-12 25l12 -49l-12 -36v-37h12q24 25 60 61h37zM448 630v25h-12v-25h12zM327 703v36h-12v-36h12zM315 715v24h-12v-24h12zM339 691v24h-12v-24h12zM230 667v24h-12v-24h12zM424 582
l-12 24l-24 12h-49l-48 -60v-97h73l48 48zM218 630v37h-12v-37h12zM206 618v37h-12v-37h12zM545 218v134l-12 -13v25l-12 -12v24l-12 -12v12h-12v12h-12v12l-12 -12v12h-12v12l-13 -12v12h-12v12h-12v12h-48q26 -9 36 -24v12l73 -48q37 -40 37 -105q0 -9 -1 -16zM352 655
h-13l-24 24h-24l-73 -73v-388h12q18 194 12 388l13 -12v24l12 -12v24l12 -24v36l12 -24v24l12 -12v-12l12 12v12h12zM206 194l-12 -12v12l-12 -12q-24 12 -49 24h-24q-51 -19 -97 -61l49 37l60 12h24l25 -12h12zM485 594h-12v61h12v-61zM461 606h-13v49h13v-49z" />
    <glyph glyph-name="s" unicode="s" horiz-adv-x="586" 
d="M558 136q0 -14 -16.5 -45.5t-28.5 -45.5l-60 -30l-196 -15h-212l-30 45l-15 347q20 -39 60 -105l76 -76q119 -30 121 -30h60l45 15l15 15l-30 46q-40 34 -143 60t-144 60q-30 61 -60 121v76l30 15q9 22 30 60q11 10 31 30q94 94 166 121h75l-45 -15l-30 -60v-31l90 -45
h91l45 15l30 30l-15 31h45l15 -16l-15 -60q19 -75 15 -106l-30 -30h-45q-41 -50 -91 -75q-46 12 -75 30l30 15l15 -15l15 45l-15 45l-60 31l-60 -15l-31 -31v-60q70 -38 136 -60q22 -4 61 -15l75 -46h15l30 15q11 34 30 46h-15v15h15l-15 -106q0 -25 6 -68q8 -52 9 -68v-60z
M543 528l-15 46h-15l-15 -31h-30l-30 -15q-32 12 -46 30l16 31v30l-16 -45q16 -32 16 -91l15 -15l60 60h60zM498 211v136h-15q6 -31 -15 -75v75l-15 15v-15l-15 -30v60h-15v-15l-15 -15v45h-16v-15l-15 -15v30l-15 16v-16l-15 -15v31h-15l-15 -16v16h-15l-15 -16v31h-15
l-15 -15v15l-15 15v-15l-16 -15v45h-15v-15l-15 -15v60h-15v-15v0v-15l-15 -15v45h-15v-15h-15l-15 15v30q49 25 90 76q46 15 91 30h-30q-30 15 -61 30h-30q-50 -41 -75 -91q-1 -9 -1 -18q0 -63 46 -163l121 15q37 -22 75 -60v15h15l15 -15l-15 -15l15 -15l-15 15h30l16 -15
l-16 -15l16 15l15 -15l15 -45v-76q-32 -12 -46 -30h-60l15 15v15h-15v-30l-15 -15v30h-15v-15l-15 -30v45l-15 -15v0l-15 -30v45l-15 -15v0l-16 -30v45l-15 -15v0l-15 -30v45l-15 -15v0l-15 -30v45l-15 -15v0l-15 -30v60l-15 -15v-15l-15 -30v30l-15 30v15l-16 -30v60
l-15 -15v15l-15 -30v76l-15 -76q12 -33 30 -45v-30l31 -15h332l60 45zM377 166v15l-15 -15v-15z" />
    <glyph glyph-name="t" unicode="t" horiz-adv-x="775" 
d="M738 578q-47 -10 -98 -52q-46 -38 -74 -83l-61 -25l-13 13v12h37l25 25q25 78 25 104q0 10 -1 19l-36 37h-37q-28 -9 -50 -37l-12 -25v-381l37 -37h-49q-37 -25 -111 -74l-25 -37q-44 -38 -102 -38q-10 0 -21 1l37 12q39 38 47 49q13 18 27 62l12 37l-12 394l-12 37
l-37 37l-49 -13l-37 -37l12 -73l49 -62h25v-25l-62 25q-28 45 -74 83q-52 42 -98 52v74l12 86h62q-25 -12 -49 -24l49 -37h74l61 12l37 37l-12 49l-37 25h-37q14 1 29 1q89 0 143 -38l37 -49l37 49q58 38 133 38q14 0 27 -1l-49 -12l-37 -37l12 -37l25 -25l86 -24l86 24
l13 13v12q-11 15 -37 24h37q16 -5 36 -12v-148zM714 591v24l-49 -37h-37l-25 13v-74l-49 -49q21 16 61 49q16 18 50 49zM345 689v25h-13v-25h13zM332 689v25h-12v-25h12zM431 345v197h-13v-197h13zM418 283v259h-12v-259h12zM529 652h-37l-24 25h-37l-25 -12l-12 -37
l-25 -25l-24 12l12 13v37l-12 -62l-13 25v-25l-12 12v37l12 25h-24l-13 12q-6 -9 -28 -20q-17 -9 -33 -17h-37l49 -12q43 -34 58 -44q38 -26 65 -30v-381h13l12 184v173l-12 12v12q51 37 72 50q50 32 75 36zM357 246v308h-12v-308h12zM345 246v320h-13v-320h13zM172 468
l-37 49v74l-12 -13h-37q-19 14 -61 37v-12q31 -17 77 -62q35 -37 70 -73zM431 172v74h-13v-74h13zM418 172v50h-12v-50h12zM369 135v25h-12v-25h12zM357 123v49h-12v-49h12zM345 111v49h-13v-49h13z" />
    <glyph glyph-name="u" unicode="u" horiz-adv-x="742" 
d="M707 787l-27 -14h-27l-26 -40q-21 -253 -14 -506h-66l13 -40q-7 -44 -60 -102q-44 -42 -87 -85h-53l-13 13l13 14l27 13v27q-23 5 -67 13l-60 2q-34 1 -60 11l-53 54h-14l-13 493l-40 67l-80 26q12 15 27 27q31 -13 80 -40l80 -80l40 67q24 25 63 49t70 31h67l-40 -14
l-40 -40q20 -65 13 -146l-40 -27l-27 -40v-267l54 -40h53l40 40l13 54v373l-13 27l-27 13l80 27l67 -14q52 31 93 40l14 27zM267 680v27h-14v-27h14zM253 653v40h-13v-40h13zM240 640v40h-13v-40h13zM227 627v40h-14v-40h14zM613 733q-25 -15 -66 -26l-14 -414
q-12 -7 -23 -31q-14 -31 -17 -35q-31 -43 -93 -63l-13 -4q-39 0 -67 13v14l-13 -14v14l-14 -14l-13 14l13 13v0l-13 -13v13h-13l-14 13v334l40 40l40 13v53l-26 40l-27 -13q-27 -58 -53 -80h-27l-27 27v-214l14 200v-400q-7 187 13 374l13 -14l14 -373l13 -27q26 -12 65 -14
q-18 1 68 1q27 -13 54 -27v-40l53 40q5 41 26.5 82.5t53.5 64.5q0 1 -2 141q-1 90 2 149q3 81 13 137q21 -134 14 -267v267q20 -107 13 -214q7 107 -13 214zM253 253h-13v267h13v-267z" />
    <glyph glyph-name="v" unicode="v" horiz-adv-x="853" 
d="M813 800l-64 -38q-21 -30 -34 -102q-7 -30 -17 -89v-199v-93q0 -59 -38 -127q-15 -27 -55 -67q-24 -24 -34 -33q-20 -17 -38 -27q-51 -10 -89 -25q-50 12 -88 25l-13 38l38 -38h63q29 23 51 64q-36 27 -89 76q-1 1 -31.5 50.5t-31 50.5t-38.5 102v127l-26 51l-50 38
l-51 -13l-26 -38l13 -89q66 -64 116 -64q6 0 11 1v-25h-38l-17 4q-28 7 -31 7q-18 6 -28 14t-77 76q-45 45 -88 64l-13 76l13 76h38l-13 -13l38 -38h51l63 13l51 38l-12 51q-38 26 -64 38q73 -8 126 -37.5t103 -89.5q6 -7 16 -31.5t22 -32.5h25v-177l26 -77q18 -22 50 -63
l13 190v191l-25 13v25q8 -1 16 -1q49 0 98 39q5 4 12.5 13t12.5 13q23 14 64 50q37 21 89 13zM356 635v25h-13v-25h13zM368 610v38h-12v-38h12zM394 571v39h-13v-39h13zM381 571v64h-13v-64h13zM305 648v50h-13v-50h13zM292 648v50h-13v-50h13zM279 635v76h-12v-76h12z
M724 254l-127 241q21 54 38 64h13l12 -13v-330q-6 228 13 457l13 -140q0 -16 -6.5 -50.5t-6.5 -50.5v190q0 6 8 25q7 16 5 26v0l12 25v13l13 13q-35 -42 -76 -64l-51 -12l-51 12q26 -11 51 -25v-419l-13 -26l-38 -12q-22 4 -74 61q-41 44 -65 78l-26 89l13 102l13 13v-140
l12 152q0 -245 -2 -117q1 -77 15 -111q-7 114 13 228v-241l12 -25q1 10 1 20q0 18 -6 43.5t-7 37.5v178h-13l-13 13v-13l-38 -13q-14 25 -25 64l-26 25q-50 -12 -101 -25l51 -13l25 -25l13 12v-12l12 12l39 -50v-153l12 115v-102q0 -1 13 -44.5t13 -44.5q28 -61 114 -152h25
v12q17 10 51 26q13 3 38 12q57 24 102 64zM660 190v51h-12v-51h12zM648 165v51h-13v-51h13zM635 152v64h-13v-64h13zM571 216v38h-12v-38h12zM622 140v63h-12v-63h12zM559 203v26h-13v-26h13zM610 127v51h-13v-51h13zM495 229v25l-12 25zM521 203v26l-13 25v-38zM470 241v38
q-6 17 -13 38v-63zM597 114v51h-13v-51h13zM584 102v38h-13v-38h13zM114 571v26h-12v-26h12zM102 559v38h-13v-38h13zM571 89v38h-12v-38h12zM89 571v26h-13v-26h13zM559 76v64h-13v-64h13zM76 559v51h-13v-51h13zM63 571v39h-12v-39h12zM51 584v26h-13v-26h13zM546 76v51
h-13v-51h13zM533 76v51h-12v-51h12zM190 597q-38 -26 -76 -51v-13l-25 -12q-8 11 -64 38v-13q81 -59 153 -140l-38 64l-13 76q23 28 63 51zM622 444l-12 -190v381z" />
    <glyph glyph-name="w" unicode="w" horiz-adv-x="890" 
d="M848 645l-12 -48q-23 -20 -108 -48v-107q-1 -17 -7 -60q-5 -38 -5 -60l24 -238l36 -36l48 -12v-24q-30 11 -84 36q-25 20 -71 59q-41 -72 -132 -107h-71q36 10 59 24l-12 48l-35 24q-58 -67 -132 -96h-71l47 12q22 38 36 48q-9 26 -24 36h-59l-24 -24l12 -24l24 -12h-36
q-11 0 -36 13.5t-36 22.5q-27 33 -48 83v144q0 24 6 71.5t6 71.5q0 121 -36 274l-47 60l-60 24h48q2 0 71 -24l87 -87q60 -63 69 -92v-24l35 36q24 13 75 13q14 0 43 -1t43 -1q52 0 78 13l24 36q-10 15 -36 24l36 -12l24 -36v-24h191l36 36l-36 36q38 -21 60 -48zM609 549
v36h-12v-36h12zM597 537v48h-12v-48h12zM573 358v108l-12 107q-23 -14 -60 -24v-227q34 29 72 36zM776 585l-12 12v-12h-12v-12h-12v12l12 -12h-12l-12 12v-12h-12v12l12 -12h-12l-12 12v-12h-11v12l11 -12h-11l-12 12v-12h-12v12l12 -12h-12l-12 12v-24h-12l-24 -12
l-12 -394v358q6 -179 -12 -346v334h-12v-322h12q-33 -40 -72 -60q-35 12 -71 24v0l-24 12l-12 394l12 12q72 8 107 24h-24v-12l-12 12v0h-11v-12h-12v0h-12v0h-12v0h-12v-12l-12 12v0l-24 -24v-358l-12 -12v84q-1 14 -6 41.5t-6 41.5v167v-334q-18 155 -12 311v-299l-48 -48
l12 -12l12 12q6 -9 60 -36q26 9 36 24h36l23 -12v0v-12l12 12l12 -12l-12 -11v0l12 11h12v-11h-12v-24h12v24h-12l12 11h12q12 -11 24 -23l48 23l24 48l12 -12v-12l12 12v-12h12v12l12 -12q-18 191 -12 382q6 -179 -12 -346v370h-12v-358h12l-24 -24v394l12 12q61 0 55 0
q31 1 52 12zM573 239v48l-12 47l-24 -12q-24 -93 -24 -95v-48q5 -16 12 -36l36 36zM346 191v382q-27 -8 -47 -36l-12 -191v-203q37 21 59 48zM167 334v191h-12v-191h12zM227 119l-24 24v406l24 48v0l-12 -12v48l-12 -24v24l-12 -12v24h-12v12l-12 -24q5 -40 12 -120v-290
v-80l12 -47l24 11zM251 143l-12 12l-12 -12v12l12 -24zM155 155v502h-12v-502h12zM287 131v-12v0v12zM239 597h-12v24h12v-24zM239 167h-12v346h12v-346zM382 155l-12 -12h-12l24 24v-12zM334 143z" />
    <glyph glyph-name="x" unicode="x" horiz-adv-x="879" 
d="M837 135l-37 -12l-37 -37h-135q-76 46 -136 99l-49 12l-25 -12l-12 -74q-35 -17 -69 -34q-42 -21 -66 -40l-25 -37l-74 25l50 12l24 37v49q-60 18 -123 12l-74 37q-17 -36 -12 -61l12 -13h13l24 -12h-49l-37 25v123q31 9 64 40q40 36 59 46h49l-24 -74l37 -37l37 -12
l49 12l37 49v25q14 28 37 86l-37 62l-9 49q-6 34 -22 55l-43 43h-49l-37 -36v-62l24 -25l-24 -12h-25l-74 74l-49 12v74l12 74h37l-12 -12l12 -25l13 -12h98l37 12l37 37v37q-26 24 -37 37l-37 12q64 -6 123 -37q48 -45 111 -111q3 -5 24 -49h25v-74q8 -27 37 -49l12 99v98
l-37 37h62q37 27 74 55q42 34 61 68h50l-50 -74l-12 -74v-184l25 -25l12 -37h-99l-73 -37q100 -126 283 -135q15 10 24 37l-24 12h24l25 -12v-136zM554 468v197h-12v-197h12zM542 455v210h-13v-210h13zM825 160v25h-13v-25h13zM345 615v50h-13v-50h13zM357 603v49h-12v-49
h12zM369 591v49h-12v-49h12zM382 578v37h-13v-37h13zM320 628v49h-12v-49h12zM295 652v50h-12v-50h12zM308 640v49h-13v-49h13zM332 615v50h-12v-50h12zM283 652v50h-12v-50h12zM800 148v24h-12v-24h12zM271 640v74h-13v-74h13zM788 135v25h-13v-25h13zM775 135v25h-12v-25
h12zM800 197v12l-12 13v-13l12 -12l-12 -12l-13 12v12l-12 13v-37l-12 12v12l-13 13v-50l-12 25v25h-12v-50l-12 25v25l-13 12v-62l-12 25v25l-12 12v-37l-13 25v12l-12 12v-24h-12l12 36l-12 -12v-24h-13l-12 24v12l-12 13v-49l-13 12v37l-12 12v-49l-12 24v37l-12 13v-50
l-13 25v25h-12v-13l-12 13v0l-13 12v12l-12 -12v-25l-12 13v12q17 -36 12 -62v25l12 12v-49h13v12l12 13v-49l12 12v-12l13 24v-37l12 13h12l-12 -13v-24h12v24h-12l12 13q19 -15 60 -37q47 -25 63 -25h49l37 12zM652 431l-37 12v160q0 11 25 160v-25l-12 13v-25h-13l13 -12
l-13 -12l-12 12v-25h-12v13l12 -13l-12 -12l-13 12v-12l-12 12v-246l-12 -12h-25l-12 -13h-49v-12l-13 12v-12l-12 12v-36l-12 24v0l-13 12v-98q-18 48 -12 98v-24l-12 12v-123q-19 48 -12 111v-49h-13v-123q-18 48 -12 98v-49l-12 12v-98l-13 24v25l-12 -74l-12 12v13
l-13 -13v-24l-12 12v12q-28 -5 -76.5 12.5t-71.5 37.5v0l37 -37q45 -14 136 -37l24 12l13 25v-13q38 59 61 111q13 29 25 58q16 32 37 53v0h12v12h12v0h13v12h12v0h25v0q48 20 110 13zM431 455v99q-13 3 -49 -12q-19 17 -62 49l-25 37h-37l-12 -13l-24 -12h-37
q-34 -19 -99 -61q-23 14 -61 24v-24l98 -74l12 12l-12 25l12 49l25 37l49 12h37l12 -25v13h13l12 -25v12l12 13v-25l13 -12v0l12 12l12 -98q-8 50 13 86v-86l12 -25v25l12 24v-61h13v12l12 12v-12l12 12l-24 50l12 37l12 -13v-24l12 24v-74h13zM443 295v25h-12v-25h12z
M123 578v25h-12v-25h12zM431 258v37h-13v-37h13zM111 578v25h-13v-25h13zM98 578v25h-12v-25h12zM86 566v37h-12v-37h12zM74 566v49h-12v-49h12zM62 578v37h-13v-37h13zM49 591v24h-12v-24h12zM418 209v49h-12v-49h12zM406 197v37h-12v-37h12zM135 308h-12v-37zM111 246v49
l-13 -24v-25h13zM86 246v12h-12v-12h12zM603 455l-12 62l12 49v-111z" />
    <glyph glyph-name="y" unicode="y" horiz-adv-x="867" 
d="M825 800q-53 -35 -88 -76q-26 -92 -26 -114q0 -21 6.5 -63.5t6.5 -63.5l-13 -115l26 -25v-26q-40 6 -77 -12q-18 -15 -41.5 -50.5t-42.5 -85.5l-17 -42q-47 -85 -178 -127h-102l-25 25l-38 13v76q0 11 8 45q8 29 5 44h38v-13l-13 -12h-13l26 -51h63l76 38l38 51v38
q-14 15 -30 30t-33 21l-25 38q-50 -20 -102 -13q-26 16 -76 51q-6 4 -153 127h-25v76l13 76h63q-27 -9 -38 -25l38 -25h51l63 12l51 38v26l-51 51h-25q84 -6 140 -39l63 -50l38 -64v-25l38 -26q-7 -39 13 -76q38 -38 64 -63h25l13 101v127l-38 38l38 -12q56 13 111 61
q4 3 92 91h63zM356 622v26h-13v-26h13zM368 610v25h-12v-25h12zM381 597v25h-13v-25h13zM343 622v26h-13v-26h13zM394 571v26h-13v-26h13zM330 635v25h-13v-25h13zM305 648v25h-13v-25h13zM317 635v25h-12v-25h12zM292 635v51h-13v-51h13zM279 622v64h-12v-64h12zM610 267
v38h-13v-38h13zM724 737l-13 -13h-13v-26h-12v-12h-13v-13h-13v-13h-12v-12h-13v-292h-13q-18 139 -12 292v-305q-20 152 -13 305v-318l-13 13v13h-13v-26l-12 13v13l-13 12v-51l-13 26v25h-12v-114q-20 62 -13 127h-13v-152h-12v25h12v-13q-15 -10 -25 -38v-38l-13 13v25
l-13 -25v-38h-12v12l-13 13v-51l-13 38l-12 -63l-13 38l-13 -51l-12 26v12h-13v-38l-13 13v25h-13v-38l-12 13v25h-13v-25l-25 25v-12q-10 27 -26 38q-3 -13 13 -51l25 -13h38l26 -13l101 39l64 63v-63q-8 51 13 88v-76q-1 7 -1 14q0 13 5 31q7 25 8 31v64q38 38 77 76v-51
q-5 27 12 64h26l25 13l13 317v0l38 76v-12zM597 241v51h-13v-51h13zM483 343v51h-13l13 -26l-13 13v38l-26 25v-50l-12 127h-13v-115l-13 115q-27 11 -54 46q-35 45 -47 55q-27 -9 -64 -38h-25q37 -20 76 -13l13 -25v13h25l-13 -26v13l26 -25q30 -49 38 -102q17 -19 51 -51
q18 -9 51 -25zM584 216v63h-13v-63h13zM356 444v51h-13v-51h13zM368 406v51h-12v-51h12zM571 190v77h-12v-77h12zM559 152v51h-13v-51h13zM330 368l-25 76l-13 13v38q-16 11 -25 38l-38 13h-39l-25 -25v-77q31 -32 46 -44q26 -21 56 -32h63zM546 140v38h-13v-38h13zM114 559
v25h-12v-25h12zM102 533v51h-13v-51h13zM89 533v51h-13v-51h13zM76 546v38h-13v-38h13zM51 559v38h-13v-38h13zM508 102v38h-13v-38h13zM63 546v38h-12v-38h12zM165 559h-25q-29 -37 -38 -64q-42 22 -77 64v-38q35 -14 64 -38q11 -11 23.5 -23t27.5 -16l-13 64zM394 25v26
h-13v-26h13zM673 381l-13 63l13 77v-140z" />
    <glyph glyph-name="z" unicode="z" horiz-adv-x="796" 
d="M758 42q-6 -19 -14 -42h-14v28l-28 28l-562 -14l-28 -14v-14l28 -14h-28l-28 28q7 39 38 77q11 14 60 63l169 365l-28 42l-56 14l-56 -14q-29 -56 -57 -112l28 -28q-11 -17 -42 -28q-29 29 -39 48.5t-17 63.5l-84 -28v98l14 85h42l-14 -28l42 -28h56l71 14l56 42v28
l-14 28q-31 11 -42 28h-29l43 14l42 -14q14 -17 49 -42t49 -42l42 -14h98l67 67q39 37 74 59l56 14l-56 -56q-9 -33 -28 -84q-44 -74 -127 -225q-33 -75 -98 -224q25 -15 98 -15q20 0 98 29q-23 59 -70 112h-42q41 20 70 14q36 -20 75 -61q50 -52 66 -65t70 -29v-154z
M421 618v28h-14v-28h14zM323 660v42h-14v-42h14zM309 646v56h-14v-56h14zM674 126v28q-20 20 -40 39q-24 26 -30 46v-99l-15 28v28h-14v-56l-14 28v28h-14v-56l-14 28v28h-14v-56l-14 28v28h-14v-56l-14 28v28h-14v-56l-14 28v28h-14v-56l-14 28v28h-14v-56l-14 28v28h-14
v-42h-28l-14 14v28h-14v0q20 33 56 99q13 38 42 112q55 125 126 211v0l14 14v0q16 12 43 56l14 56v-28h-14v-14l-15 14v-42l-14 14v-28l-14 14v-28l-14 14v0l14 -14l-42 -42h-154l-42 42q-25 -33 -56 -42h70l28 -15l14 -28l14 14v-126l-14 14v-56q14 27 14 84t14 84v-70
l14 -14l14 14l-28 42l28 14v-14h14l-14 14v14h28q2 -13 -3 -42t-11 -42q-31 -70 -70 -98v-14l-14 14v0l-14 14v-84h-14v0l-14 14v14q-6 -43 14 -98l-14 -14h-14v28l14 28l-14 42v-70l-14 14v-99l14 -28h28l-14 -14h-28l-28 28l14 28v29l-14 14v-28l-14 -15v-28l-14 14v-14
l-14 -14l14 -14v-14h435zM730 84v98h-14v-98h14zM744 70v98h-14v-98h14zM716 84v98h-14v-98h14zM449 365v28h-14v-28h14zM435 337v28h-14v-28h14zM98 561v28h-14v-28h14zM70 575v29h-14v-29h14zM84 561v28h-14v-28h14zM42 575v43h-14v-43h14zM182 561l-56 -28h-28v-28
l-28 14l-14 28l-28 -14v-14l42 -14l84 -84q1 7 -14 84zM379 168v85h-14v-85h14zM365 168v57h-14v-57h14zM196 84v28h-14v-28h14zM182 84v28h-14v-28h14zM547 547h-14v28h14v-28z" />
    <glyph glyph-name="glyph57" horiz-adv-x="1000" 
 />
  </font>
</defs>
</svg>
